<svg width="370" height="342" viewBox="0 0 370 342" fill="none" xmlns="http://www.w3.org/2000/svg">
    <g clip-path="url(#clip0_34_1506)">
        <path d="M357.227 197.035C346.79 228.66 324.3 263.316 291.194 274.605C241.184 291.655 236.712 332.652 145.945 332.374C131.795 332.335 118.658 330.85 106.535 328.144C100.02 326.69 93.7923 324.873 87.8737 322.731C34.1191 303.339 4.67325 257.239 0.472224 207.976C-5.05952 143.187 39.0552 110.495 67.8047 91.2415C96.5543 71.988 129.335 0.425493 218.57 0.000216176C232.171 -0.0616423 245.803 1.27605 259.079 4.32258C289.376 11.2739 320.555 28.0376 339.278 53.5774C340.686 55.495 342.032 57.4667 343.324 59.4694C368.585 98.7573 371.463 153.92 357.227 197.035Z" fill="#836FFF"/>
        <path opacity="0.7" d="M357.227 197.035C346.79 228.66 324.3 263.316 291.194 274.605C241.184 291.655 236.712 332.652 145.945 332.374C131.795 332.335 118.658 330.85 106.535 328.144C100.02 326.69 93.7923 324.873 87.8737 322.731C34.1191 303.339 4.67325 257.239 0.472224 207.976C-5.05952 143.187 39.0552 110.495 67.8047 91.2415C96.5543 71.988 129.335 0.425493 218.57 0.000216176C232.171 -0.0616423 245.803 1.27605 259.079 4.32258C289.376 11.2739 320.555 28.0376 339.278 53.5774C340.686 55.495 342.032 57.4667 343.324 59.4694C368.585 98.7573 371.463 153.92 357.227 197.035Z" fill="white"/>
        <path d="M361.482 339.046H1.43127" stroke="#263238" stroke-miterlimit="10"/>
        <path d="M16.8815 310.058C16.8815 310.058 28.2467 111.361 369.613 93.298" stroke="#263238" stroke-miterlimit="10" stroke-linecap="round" stroke-linejoin="round" stroke-dasharray="5 5"/>
        <path d="M329.382 79.8979C342.38 90.4912 349.196 107.007 352.623 123.029C359.726 156.27 356.399 192.055 339.904 222.103C322.489 253.828 291.743 276.677 258.7 290.255C188.667 319.035 99.5172 300.168 59.7506 231.869C59.3173 231.126 58.8918 230.376 58.474 229.634C54.6211 222.745 51.0623 215.306 49.5304 207.512" stroke="#263238" stroke-miterlimit="10" stroke-linecap="round" stroke-linejoin="round" stroke-dasharray="5 5"/>
        <path d="M216.883 226.209H17.8563C14.6611 226.209 12.0615 223.618 12.0615 220.417V23.2588C12.0615 20.0653 14.6533 17.4673 17.8563 17.4673H216.883C220.078 17.4673 222.678 20.0576 222.678 23.2588V220.425C222.678 223.618 220.086 226.209 216.883 226.209Z" fill="#263238"/>
        <path d="M221.958 221.353H22.9316C19.7364 221.353 17.1368 218.762 17.1368 215.561V18.3952C17.1368 15.2017 19.7286 12.6037 22.9316 12.6037H221.958C225.154 12.6037 227.753 15.194 227.753 18.3952V215.561C227.753 218.755 225.161 221.353 221.958 221.353Z" fill="#836FFF" stroke="#263238" stroke-miterlimit="10"/>
        <path d="M175.043 159.069H69.9785C64.7253 159.069 60.4624 154.809 60.4624 149.558V145.971C60.4624 140.72 64.7253 136.46 69.9785 136.46H175.043C180.296 136.46 184.559 140.72 184.559 145.971V149.558C184.559 154.816 180.296 159.069 175.043 159.069Z" fill="white" stroke="#263238" stroke-miterlimit="10"/>
        <path d="M175.043 113.649H69.9785C64.7253 113.649 60.4624 109.389 60.4624 104.139V100.551C60.4624 95.3007 64.7253 91.0402 69.9785 91.0402H175.043C180.296 91.0402 184.559 95.3007 184.559 100.551V104.139C184.559 109.389 180.296 113.649 175.043 113.649Z" fill="white" stroke="#263238" stroke-miterlimit="10"/>
        <path d="M155.152 195.581H89.8618C84.6086 195.581 80.3457 191.321 80.3457 186.07V182.482C80.3457 177.232 84.6086 172.972 89.8618 172.972H155.152C160.405 172.972 164.668 177.232 164.668 182.482V186.07C164.668 191.321 160.413 195.581 155.152 195.581Z" fill="#263238"/>
        <path d="M227.753 29.2591V19.2148C227.753 15.5651 224.79 12.6037 221.138 12.6037H23.7517C20.1 12.6037 17.1368 15.5651 17.1368 19.2148V29.2513H227.753V29.2591Z" fill="#263238" stroke="#263238" stroke-miterlimit="10"/>
        <path d="M197.239 25.0295C198.927 25.0295 200.295 23.662 200.295 21.9752C200.295 20.2884 198.927 18.921 197.239 18.921C195.552 18.921 194.183 20.2884 194.183 21.9752C194.183 23.662 195.552 25.0295 197.239 25.0295Z" fill="white" stroke="#263238" stroke-miterlimit="10"/>
        <path d="M207.552 25.0295C209.24 25.0295 210.608 23.662 210.608 21.9752C210.608 20.2884 209.24 18.921 207.552 18.921C205.865 18.921 204.496 20.2884 204.496 21.9752C204.496 23.662 205.865 25.0295 207.552 25.0295Z" fill="white" stroke="#263238" stroke-miterlimit="10"/>
        <path d="M220.922 21.9752C220.922 20.2896 219.552 18.921 217.866 18.921C216.179 18.921 214.81 20.2896 214.81 21.9752C214.81 23.6609 216.179 25.0295 217.866 25.0295C219.552 25.0218 220.922 23.6609 220.922 21.9752Z" fill="white" stroke="#263238" stroke-miterlimit="10"/>
        <path d="M295.48 33.7902C295.48 41.94 291.666 49.2084 285.701 53.8787C281.361 57.3041 275.868 59.3455 269.91 59.3455C263.945 59.3455 258.452 57.3041 254.112 53.8787C248.147 49.2084 244.333 41.94 244.333 33.7902C244.333 19.6633 255.783 8.22718 269.918 8.22718C284.038 8.21944 295.48 19.6633 295.48 33.7902Z" fill="#263238" stroke="#263238" stroke-miterlimit="10"/>
        <path d="M280.587 29.7848C280.587 23.8928 275.806 19.1143 269.91 19.1143C264.015 19.1143 259.234 23.8928 259.234 29.7848C259.234 35.6769 264.015 40.4554 269.91 40.4554C275.806 40.4554 280.587 35.6769 280.587 29.7848Z" fill="white" stroke="#263238" stroke-miterlimit="10"/>
        <path d="M285.701 53.8787C281.361 57.3041 275.868 59.3454 269.91 59.3454C263.945 59.3454 258.452 57.3041 254.112 53.8787C255.698 46.6258 262.174 41.1823 269.91 41.1823C277.647 41.1823 284.115 46.6181 285.701 53.8787Z" fill="white" stroke="#263238" stroke-miterlimit="10"/>
        <path d="M302.505 53.3916L333.243 59.7553L324.98 69.2119L302.505 53.3916Z" fill="white" stroke="#263238" stroke-miterlimit="10"/>
        <path d="M302.505 53.3916L312.818 82.295L321.909 72.1734L302.505 53.3916Z" fill="white" stroke="#263238" stroke-miterlimit="10"/>
        <path d="M324.98 69.2119L324.276 76.488L321.909 72.1734L302.505 53.3916L324.98 69.2119Z" fill="white" stroke="#263238" stroke-miterlimit="10"/>
        <path d="M324.276 76.488L320.276 74.2147L321.909 72.1734L324.276 76.488Z" fill="white" stroke="#263238" stroke-miterlimit="10"/>
        <path d="M254.213 248.408V174.054C254.213 156.023 268.889 141.354 286.931 141.354C304.973 141.354 319.65 156.023 319.65 174.054V248.408H333.15V174.054C333.15 148.584 312.416 127.861 286.931 127.861C261.446 127.861 240.712 148.584 240.712 174.054V248.408H254.213Z" fill="#263238"/>
        <path d="M344.144 216.056H233.981V339.039H344.144V216.056Z" fill="#B2B2B2"/>
        <path d="M344.144 226.518L233.981 336.626V339.046H244.998L344.144 239.949V226.518Z" fill="white"/>
        <path d="M233.981 246.684V286.884L304.842 216.056H264.626L233.981 246.684Z" fill="white"/>
        <path d="M344.144 216.056H233.981V339.039H344.144V216.056Z" stroke="#263238" stroke-miterlimit="10"/>
        <path d="M344.144 216.056H320.957V339.039H344.144V216.056Z" fill="#263238" stroke="#263238" stroke-miterlimit="10"/>
        <path d="M280.463 264.723C280.463 260.463 277.005 257.006 272.742 257.006C268.479 257.006 265.021 260.463 265.021 264.723C265.021 267.917 266.963 270.654 269.725 271.829L268.309 288.585H277.183L275.767 271.829C278.529 270.654 280.463 267.917 280.463 264.723Z" fill="#263238" stroke="#263238" stroke-miterlimit="10"/>
        <path d="M72.547 150.061L71.5335 149.45L72.8101 147.656L70.9069 146.929L71.3246 145.831L73.1505 146.798L72.9571 144.571H74.2646L74.0557 146.798L75.897 145.831L76.2993 146.929L74.3961 147.672L75.6881 149.442L74.636 150.053L73.5992 148.035L72.547 150.061Z" fill="#263238"/>
        <path d="M78.9762 150.061L77.9627 149.45L79.2393 147.656L77.3361 146.929L77.7538 145.831L79.5797 146.798L79.3863 144.571H80.6938L80.4849 146.798L82.3262 145.831L82.7285 146.929L80.8253 147.672L82.1173 149.442L81.0651 150.053L80.0284 148.035L78.9762 150.061Z" fill="#263238"/>
        <path d="M85.3977 150.061L84.3842 149.45L85.6608 147.656L83.7576 146.929L84.1754 145.831L86.0012 146.798L85.8078 144.571H87.1153L86.9064 146.798L88.7477 145.831L89.1501 146.929L87.2468 147.672L88.5388 149.442L87.4867 150.053L86.4499 148.035L85.3977 150.061Z" fill="#263238"/>
        <path d="M91.8191 150.061L90.8056 149.45L92.0822 147.656L90.179 146.929L90.5967 145.831L92.4226 146.798L92.2292 144.571H93.5367L93.3278 146.798L95.1691 145.831L95.5714 146.929L93.6682 147.672L94.9602 149.442L93.908 150.053L92.8713 148.035L91.8191 150.061Z" fill="#263238"/>
        <path d="M98.2406 150.061L97.2271 149.45L98.5037 147.656L96.6005 146.929L97.0182 145.831L98.8441 146.798L98.6507 144.571H99.9582L99.7493 146.798L101.591 145.831L101.993 146.929L100.09 147.672L101.382 149.442L100.33 150.053L99.2928 148.035L98.2406 150.061Z" fill="#263238"/>
        <path d="M104.662 150.061L103.649 149.45L104.925 147.656L103.022 146.929L103.44 145.831L105.265 146.798L105.072 144.571H106.38L106.171 146.798L108.012 145.831L108.414 146.929L106.511 147.672L107.803 149.442L106.751 150.053L105.714 148.035L104.662 150.061Z" fill="#263238"/>
        <path d="M111.084 150.061L110.07 149.45L111.347 147.656L109.443 146.929L109.861 145.831L111.687 146.798L111.494 144.571H112.801L112.592 146.798L114.434 145.831L114.836 146.929L112.933 147.672L114.225 149.442L113.172 150.053L112.136 148.035L111.084 150.061Z" fill="#263238"/>
        <path d="M117.513 150.061L116.499 149.45L117.776 147.656L115.873 146.929L116.29 145.831L118.116 146.798L117.923 144.571H119.23L119.021 146.798L120.863 145.831L121.265 146.929L119.362 147.672L120.654 149.442L119.602 150.053L118.565 148.035L117.513 150.061Z" fill="#263238"/>
        <path d="M123.934 150.061L122.921 149.45L124.197 147.656L122.294 146.929L122.712 145.831L124.538 146.798L124.344 144.571H125.652L125.443 146.798L127.284 145.831L127.687 146.929L125.783 147.672L127.075 149.442L126.023 150.053L124.986 148.035L123.934 150.061Z" fill="#263238"/>
        <path d="M130.356 150.061L129.342 149.45L130.619 147.656L128.715 146.929L129.133 145.831L130.959 146.798L130.766 144.571H132.073L131.864 146.798L133.706 145.831L134.108 146.929L132.205 147.672L133.497 149.442L132.445 150.053L131.408 148.035L130.356 150.061Z" fill="#263238"/>
        <path d="M136.777 150.061L135.764 149.45L137.04 147.656L135.137 146.929L135.555 145.831L137.381 146.798L137.187 144.571H138.487L138.278 146.798L140.119 145.831L140.522 146.929L138.618 147.672L139.911 149.442L138.858 150.053L137.822 148.035L136.777 150.061Z" fill="#263238"/>
        <path d="M143.199 150.061L142.185 149.45L143.462 147.656L141.558 146.929L141.976 145.831L143.802 146.798L143.609 144.571H144.916L144.707 146.798L146.549 145.831L146.951 146.929L145.048 147.672L146.34 149.442L145.288 150.053L144.251 148.035L143.199 150.061Z" fill="#263238"/>
        <path d="M149.62 150.061L148.607 149.45L149.883 147.656L147.98 146.929L148.398 145.831L150.223 146.798L150.03 144.571H151.338L151.129 146.798L152.97 145.831L153.372 146.929L151.469 147.672L152.761 149.442L151.709 150.053L150.672 148.035L149.62 150.061Z" fill="#263238"/>
        <path d="M156.042 150.061L155.028 149.45L156.305 147.656L154.401 146.929L154.819 145.831L156.645 146.798L156.452 144.571H157.759L157.55 146.798L159.392 145.831L159.794 146.929L157.891 147.672L159.183 149.442L158.13 150.053L157.094 148.035L156.042 150.061Z" fill="#263238"/>
        <path d="M162.471 150.061L161.457 149.45L162.734 147.656L160.831 146.929L161.248 145.831L163.074 146.798L162.881 144.571H164.188L163.979 146.798L165.821 145.831L166.223 146.929L164.32 147.672L165.612 149.442L164.56 150.053L163.523 148.035L162.471 150.061Z" fill="#263238"/>
        <path d="M168.892 150.061L167.879 149.45L169.155 147.656L167.252 146.929L167.67 145.831L169.496 146.798L169.302 144.571H170.61L170.401 146.798L172.242 145.831L172.644 146.929L170.741 147.672L172.033 149.442L170.981 150.053L169.944 148.035L168.892 150.061Z" fill="#263238"/>
        <path d="M72.547 104.634L71.5335 104.023L72.8101 102.229L70.9069 101.502L71.3246 100.404L73.1505 101.371L72.9571 99.1436H74.2646L74.0557 101.371L75.897 100.404L76.2993 101.502L74.3961 102.244L75.6881 104.015L74.636 104.626L73.5992 102.608L72.547 104.634Z" fill="#263238"/>
        <path d="M78.9762 104.634L77.9627 104.023L79.2393 102.229L77.3361 101.502L77.7538 100.404L79.5797 101.371L79.3863 99.1436H80.6938L80.4849 101.371L82.3262 100.404L82.7285 101.502L80.8253 102.244L82.1173 104.015L81.0651 104.626L80.0284 102.608L78.9762 104.634Z" fill="#263238"/>
        <path d="M85.3977 104.634L84.3842 104.023L85.6608 102.229L83.7576 101.502L84.1754 100.404L86.0012 101.371L85.8078 99.1436H87.1153L86.9064 101.371L88.7477 100.404L89.1501 101.502L87.2468 102.244L88.5388 104.015L87.4867 104.626L86.4499 102.608L85.3977 104.634Z" fill="#263238"/>
        <path d="M91.8191 104.634L90.8056 104.023L92.0822 102.229L90.179 101.502L90.5967 100.404L92.4226 101.371L92.2292 99.1436H93.5367L93.3278 101.371L95.1691 100.404L95.5714 101.502L93.6682 102.244L94.9602 104.015L93.908 104.626L92.8713 102.608L91.8191 104.634Z" fill="#263238"/>
        <path d="M98.2406 104.634L97.2271 104.023L98.5037 102.229L96.6005 101.502L97.0182 100.404L98.8441 101.371L98.6507 99.1436H99.9582L99.7493 101.371L101.591 100.404L101.993 101.502L100.09 102.244L101.382 104.015L100.33 104.626L99.2928 102.608L98.2406 104.634Z" fill="#263238"/>
        <path d="M104.662 104.634L103.649 104.023L104.925 102.229L103.022 101.502L103.44 100.404L105.265 101.371L105.072 99.1436H106.38L106.171 101.371L108.012 100.404L108.414 101.502L106.511 102.244L107.803 104.015L106.751 104.626L105.714 102.608L104.662 104.634Z" fill="#263238"/>
        <path d="M111.084 104.634L110.07 104.023L111.347 102.229L109.443 101.502L109.861 100.404L111.687 101.371L111.494 99.1436H112.801L112.592 101.371L114.434 100.404L114.836 101.502L112.933 102.244L114.225 104.015L113.172 104.626L112.136 102.608L111.084 104.634Z" fill="#263238"/>
        <path d="M117.513 104.634L116.499 104.023L117.776 102.229L115.873 101.502L116.29 100.404L118.116 101.371L117.923 99.1436H119.23L119.021 101.371L120.863 100.404L121.265 101.502L119.362 102.244L120.654 104.015L119.602 104.626L118.565 102.608L117.513 104.634Z" fill="#263238"/>
        <path d="M123.934 104.634L122.921 104.023L124.197 102.229L122.294 101.502L122.712 100.404L124.538 101.371L124.344 99.1436H125.652L125.443 101.371L127.284 100.404L127.687 101.502L125.783 102.244L127.075 104.015L126.023 104.626L124.986 102.608L123.934 104.634Z" fill="#263238"/>
        <path d="M130.356 104.634L129.342 104.023L130.619 102.229L128.715 101.502L129.133 100.404L130.959 101.371L130.766 99.1436H132.073L131.864 101.371L133.706 100.404L134.108 101.502L132.205 102.244L133.497 104.015L132.445 104.626L131.408 102.608L130.356 104.634Z" fill="#263238"/>
        <path d="M136.777 104.634L135.764 104.023L137.04 102.229L135.137 101.502L135.555 100.404L137.381 101.371L137.187 99.1436H138.487L138.278 101.371L140.119 100.404L140.522 101.502L138.618 102.244L139.911 104.015L138.858 104.626L137.822 102.608L136.777 104.634Z" fill="#263238"/>
        <path d="M143.199 104.634L142.185 104.023L143.462 102.229L141.558 101.502L141.976 100.404L143.802 101.371L143.609 99.1436H144.916L144.707 101.371L146.549 100.404L146.951 101.502L145.048 102.244L146.34 104.015L145.288 104.626L144.251 102.608L143.199 104.634Z" fill="#263238"/>
        <path d="M149.62 104.634L148.607 104.023L149.883 102.229L147.98 101.502L148.398 100.404L150.223 101.371L150.03 99.1436H151.338L151.129 101.371L152.97 100.404L153.372 101.502L151.469 102.244L152.761 104.015L151.709 104.626L150.672 102.608L149.62 104.634Z" fill="#263238"/>
        <path d="M156.042 104.634L155.028 104.023L156.305 102.229L154.401 101.502L154.819 100.404L156.645 101.371L156.452 99.1436H157.759L157.55 101.371L159.392 100.404L159.794 101.502L157.891 102.244L159.183 104.015L158.13 104.626L157.094 102.608L156.042 104.634Z" fill="#263238"/>
        <path d="M162.471 104.634L161.457 104.023L162.734 102.229L160.831 101.502L161.248 100.404L163.074 101.371L162.881 99.1436H164.188L163.979 101.371L165.821 100.404L166.223 101.502L164.32 102.244L165.612 104.015L164.56 104.626L163.523 102.608L162.471 104.634Z" fill="#263238"/>
        <path d="M168.892 104.634L167.879 104.023L169.155 102.229L167.252 101.502L167.67 100.404L169.496 101.371L169.302 99.1436H170.61L170.401 101.371L172.242 100.404L172.644 101.502L170.741 102.244L172.033 104.015L170.981 104.626L169.944 102.608L168.892 104.634Z" fill="#263238"/>
        <path d="M104.678 84.9085V78.2046H106.341C106.743 78.2046 107.068 78.2741 107.308 78.4211C107.548 78.568 107.726 78.7767 107.834 79.0551C107.943 79.3335 107.997 79.666 107.997 80.0526C107.997 80.4083 107.935 80.7098 107.811 80.9727C107.687 81.2279 107.502 81.4289 107.262 81.5758C107.022 81.715 106.712 81.7846 106.349 81.7846H105.614V84.9007H104.678V84.9085ZM105.614 81.1196H106.047C106.318 81.1196 106.527 81.0887 106.681 81.0269C106.836 80.965 106.944 80.8567 107.014 80.7098C107.084 80.5552 107.115 80.3464 107.115 80.068C107.115 79.751 107.091 79.5036 107.045 79.3335C106.999 79.1634 106.898 79.0474 106.751 78.9778C106.604 78.9082 106.372 78.8773 106.055 78.8773H105.614V81.1196Z" fill="#263238"/>
        <path d="M107.973 84.9085L109.397 78.2046H110.302L111.733 84.9085H110.851L110.542 83.2228H109.173L108.848 84.9085H107.973ZM109.296 82.5501H110.41L109.846 79.5268L109.296 82.5501Z" fill="#263238"/>
        <path d="M113.993 84.9781C113.606 84.9781 113.289 84.893 113.025 84.7306C112.77 84.5683 112.577 84.3363 112.445 84.0425C112.314 83.7486 112.236 83.4084 112.213 83.0218L113.041 82.7976C113.056 83.0373 113.095 83.2615 113.149 83.4857C113.211 83.71 113.304 83.8878 113.436 84.027C113.567 84.1662 113.753 84.2358 113.993 84.2358C114.232 84.2358 114.418 84.1662 114.542 84.0347C114.666 83.8955 114.728 83.7022 114.728 83.4548C114.728 83.1532 114.658 82.9058 114.519 82.7202C114.379 82.5347 114.209 82.3491 114 82.1635L112.878 81.1738C112.654 80.9805 112.492 80.7717 112.391 80.5397C112.283 80.3078 112.236 80.0294 112.236 79.6892C112.236 79.202 112.376 78.8154 112.662 78.5448C112.94 78.2742 113.327 78.1427 113.815 78.1427C114.078 78.1427 114.31 78.1736 114.511 78.2432C114.712 78.3128 114.882 78.4211 115.014 78.5602C115.145 78.7072 115.254 78.885 115.339 79.1015C115.416 79.318 115.47 79.5732 115.501 79.867L114.704 80.0835C114.689 79.867 114.658 79.6582 114.604 79.4727C114.557 79.2871 114.465 79.1402 114.341 79.0242C114.217 78.9082 114.039 78.8541 113.807 78.8541C113.575 78.8541 113.397 78.9159 113.265 79.0397C113.134 79.1634 113.072 79.3489 113.072 79.5886C113.072 79.7897 113.103 79.9598 113.172 80.0912C113.242 80.2227 113.35 80.3619 113.505 80.4933L114.642 81.4831C114.898 81.7073 115.122 81.9702 115.316 82.2718C115.509 82.581 115.602 82.9367 115.602 83.362C115.602 83.6945 115.532 83.9806 115.393 84.2203C115.254 84.46 115.068 84.6456 114.828 84.7693C114.581 84.9162 114.302 84.9781 113.993 84.9781Z" fill="#263238"/>
        <path d="M117.907 84.9781C117.521 84.9781 117.203 84.893 116.94 84.7306C116.685 84.5683 116.492 84.3363 116.36 84.0425C116.228 83.7486 116.151 83.4084 116.128 83.0218L116.956 82.7976C116.971 83.0373 117.01 83.2615 117.064 83.4857C117.126 83.71 117.219 83.8878 117.35 84.027C117.482 84.1662 117.668 84.2358 117.907 84.2358C118.147 84.2358 118.333 84.1662 118.457 84.0347C118.58 83.8955 118.642 83.7022 118.642 83.4548C118.642 83.1532 118.573 82.9058 118.433 82.7202C118.294 82.5347 118.124 82.3491 117.915 82.1635L116.793 81.1738C116.569 80.9805 116.406 80.7717 116.306 80.5397C116.198 80.3078 116.151 80.0294 116.151 79.6892C116.151 79.202 116.29 78.8154 116.577 78.5448C116.855 78.2742 117.242 78.1427 117.729 78.1427C117.992 78.1427 118.225 78.1736 118.426 78.2432C118.627 78.3128 118.797 78.4211 118.929 78.5602C119.06 78.7072 119.168 78.885 119.254 79.1015C119.331 79.318 119.385 79.5732 119.416 79.867L118.619 80.0835C118.604 79.867 118.573 79.6582 118.519 79.4727C118.472 79.2871 118.379 79.1402 118.256 79.0242C118.132 78.9082 117.954 78.8541 117.722 78.8541C117.49 78.8541 117.312 78.9159 117.18 79.0397C117.049 79.1634 116.987 79.3489 116.987 79.5886C116.987 79.7897 117.018 79.9598 117.087 80.0912C117.157 80.2227 117.265 80.3619 117.42 80.4933L118.557 81.4831C118.813 81.7073 119.037 81.9702 119.23 82.2718C119.424 82.581 119.517 82.9367 119.517 83.362C119.517 83.6945 119.447 83.9806 119.308 84.2203C119.168 84.46 118.983 84.6456 118.743 84.7693C118.495 84.9162 118.217 84.9781 117.907 84.9781Z" fill="#263238"/>
        <path d="M121.11 84.9085L120.02 78.2046H120.801L121.52 83.0218L122.426 78.2355H123.091L124.004 83.0527L124.708 78.2123H125.466L124.391 84.9162H123.71L122.774 79.9521L121.83 84.9162H121.11V84.9085Z" fill="#263238"/>
        <path d="M127.919 84.9781C127.47 84.9781 127.106 84.893 126.836 84.7152C126.565 84.5373 126.371 84.2899 126.255 83.9574C126.139 83.6326 126.085 83.246 126.085 82.8053V80.2691C126.085 79.8283 126.147 79.4495 126.263 79.1324C126.379 78.8154 126.572 78.5757 126.843 78.4056C127.114 78.2355 127.47 78.1504 127.926 78.1504C128.375 78.1504 128.739 78.2355 129.002 78.4056C129.265 78.5757 129.458 78.8154 129.574 79.1324C129.69 79.4495 129.752 79.8283 129.752 80.2691V82.8208C129.752 83.2538 129.69 83.6404 129.574 83.9651C129.458 84.2899 129.265 84.5451 129.002 84.7229C128.731 84.893 128.375 84.9781 127.919 84.9781ZM127.919 84.2435C128.166 84.2435 128.352 84.1894 128.483 84.0888C128.607 83.9883 128.692 83.8414 128.739 83.6558C128.785 83.4703 128.808 83.2538 128.808 83.0063V80.0681C128.808 79.8206 128.785 79.6041 128.739 79.4263C128.692 79.2484 128.607 79.1092 128.483 79.0087C128.36 78.9159 128.166 78.8618 127.919 78.8618C127.671 78.8618 127.478 78.9082 127.354 79.0087C127.222 79.1015 127.137 79.2407 127.091 79.4263C127.044 79.6041 127.021 79.8206 127.021 80.0681V83.0063C127.021 83.2538 127.044 83.4703 127.091 83.6558C127.137 83.8414 127.222 83.9806 127.354 84.0888C127.485 84.1894 127.671 84.2435 127.919 84.2435Z" fill="#263238"/>
        <path d="M130.665 84.9085V78.2046H132.011C132.46 78.2046 132.831 78.2664 133.118 78.3824C133.412 78.4984 133.628 78.6917 133.768 78.9546C133.907 79.2175 133.976 79.5577 133.976 79.983C133.976 80.2459 133.946 80.4779 133.891 80.6866C133.837 80.8954 133.744 81.081 133.628 81.2279C133.505 81.3748 133.35 81.4831 133.149 81.5449L134.1 84.9007H133.195L132.321 81.7537H131.594V84.9007H130.665V84.9085ZM131.601 81.0887H131.957C132.22 81.0887 132.437 81.0578 132.599 80.9882C132.762 80.9186 132.886 80.8104 132.963 80.648C133.04 80.4856 133.079 80.2614 133.079 79.9753C133.079 79.5809 133.009 79.3025 132.862 79.1247C132.715 78.9546 132.437 78.8618 132.011 78.8618H131.594V81.0887H131.601Z" fill="#263238"/>
        <path d="M134.967 84.9085V78.2046H136.421C136.916 78.2046 137.311 78.2819 137.597 78.4288C137.884 78.5834 138.092 78.8077 138.216 79.1092C138.34 79.4108 138.402 79.7897 138.402 80.2459V82.7125C138.402 83.1842 138.34 83.5862 138.216 83.911C138.092 84.2358 137.891 84.4832 137.613 84.6533C137.334 84.8234 136.963 84.9085 136.491 84.9085H134.967ZM135.903 84.2358H136.437C136.777 84.2358 137.025 84.1662 137.164 84.0347C137.311 83.9033 137.396 83.71 137.427 83.4548C137.458 83.1996 137.473 82.8981 137.473 82.5347V80.3619C137.473 80.0139 137.45 79.7356 137.404 79.519C137.357 79.3025 137.265 79.1479 137.118 79.0474C136.971 78.9469 136.731 78.9005 136.414 78.9005H135.911V84.2358H135.903Z" fill="#263238"/>
        <path d="M58.9382 60.5208V49.7961H61.7234C62.4507 49.7961 63.0696 49.8811 63.588 50.0435C64.1064 50.2059 64.5009 50.4997 64.7794 50.9095C65.058 51.327 65.1972 51.8992 65.1972 52.6338C65.1972 53.0745 65.1585 53.4689 65.0812 53.8091C65.0038 54.1493 64.8723 54.4432 64.6866 54.6983C64.4932 54.9535 64.2301 55.1545 63.882 55.3015L65.3674 60.5285H63.1315L61.9014 55.6649H61.12V60.5285H58.9382V60.5208ZM61.12 54.3658H61.7544C62.1103 54.3658 62.3888 54.3117 62.59 54.1957C62.7911 54.0797 62.9381 53.9096 63.0232 53.6699C63.1083 53.438 63.147 53.1441 63.147 52.8039C63.147 52.3091 63.0542 51.9302 62.8762 51.675C62.6983 51.4121 62.3579 51.2807 61.8627 51.2807H61.12V54.3658Z" fill="#263238"/>
        <path d="M66.6207 60.5208V49.7961H71.3014V51.3038H68.8102V54.1493H70.7289V55.6726H68.8102V59.0362H71.3246V60.5208H66.6207Z" fill="#263238"/>
        <path d="M75.2085 60.6677C74.5432 60.6677 73.9939 60.544 73.5529 60.3043C73.1119 60.0646 72.7792 59.6934 72.5549 59.2063C72.3305 58.7191 72.199 58.0928 72.1603 57.3351L74.0403 57.018C74.0558 57.4588 74.1022 57.8299 74.1796 58.1237C74.2569 58.4176 74.373 58.6418 74.5277 58.7887C74.6824 58.9356 74.8759 59.0052 75.1002 59.0052C75.3865 59.0052 75.5722 58.9202 75.6805 58.7423C75.7811 58.5645 75.8352 58.3635 75.8352 58.1315C75.8352 57.683 75.7269 57.3041 75.5103 57.0026C75.2936 56.701 75.0074 56.3917 74.6592 56.0824L73.5451 55.1159C73.1506 54.7834 72.8256 54.4045 72.5703 53.9792C72.315 53.554 72.1912 53.0359 72.1912 52.4173C72.1912 51.5358 72.4465 50.8554 72.9649 50.3837C73.4833 49.912 74.1873 49.6723 75.0925 49.6723C75.6341 49.6723 76.075 49.7574 76.4155 49.9352C76.7559 50.1131 77.0267 50.345 77.2201 50.6466C77.4135 50.9404 77.545 51.2652 77.6147 51.6131C77.6843 51.9611 77.7384 52.309 77.7539 52.6493L75.8894 52.9276C75.8739 52.6029 75.843 52.3168 75.8043 52.0693C75.7656 51.8219 75.6882 51.6286 75.5644 51.4894C75.4484 51.3502 75.2627 51.2807 75.0306 51.2807C74.7753 51.2807 74.5819 51.3734 74.4581 51.5668C74.3343 51.7601 74.2724 51.9688 74.2724 52.1931C74.2724 52.572 74.3575 52.8812 74.5277 53.1287C74.6979 53.3684 74.9378 53.6235 75.2395 53.8942L76.3226 54.8452C76.7714 55.2319 77.1582 55.6803 77.4831 56.1752C77.8081 56.6778 77.9705 57.2887 77.9705 58.0232C77.9705 58.5258 77.8545 58.982 77.6224 59.3841C77.3903 59.7939 77.0731 60.111 76.663 60.3352C76.2453 60.5517 75.7656 60.6677 75.2085 60.6677Z" fill="#263238"/>
        <path d="M78.9453 60.5208V49.7961H83.626V51.3038H81.1348V54.1493H83.0535V55.6726H81.1348V59.0362H83.6492V60.5208H78.9453Z" fill="#263238"/>
        <path d="M85.7537 60.5208V51.4198H84.098V49.7961H89.5833V51.4276H87.9509V60.5285H85.7537V60.5208Z" fill="#263238"/>
        <path d="M95.2697 60.5208V56.268L93.1731 49.7961H95.2233L96.3761 53.5694L97.4515 49.7961H99.4398L97.3741 56.268V60.5208H95.2697Z" fill="#263238"/>
        <path d="M103.177 60.6677C102.387 60.6677 101.769 60.5285 101.304 60.2424C100.848 59.9563 100.515 59.5542 100.314 59.0284C100.113 58.5026 100.012 57.8763 100.012 57.1418V53.1442C100.012 52.4096 100.113 51.7833 100.314 51.2652C100.515 50.7471 100.84 50.3451 101.304 50.0744C101.761 49.8038 102.387 49.6646 103.177 49.6646C103.974 49.6646 104.6 49.8038 105.064 50.0822C105.529 50.3605 105.861 50.7549 106.055 51.2729C106.248 51.791 106.356 52.4173 106.356 53.1442V57.1418C106.356 57.8763 106.256 58.5026 106.055 59.0284C105.854 59.5542 105.521 59.9563 105.064 60.2424C104.6 60.5285 103.974 60.6677 103.177 60.6677ZM103.177 59.0903C103.463 59.0903 103.664 59.0284 103.796 58.897C103.927 58.7655 104.02 58.5954 104.059 58.3789C104.105 58.1624 104.128 57.9304 104.128 57.683V52.6106C104.128 52.3632 104.105 52.1312 104.059 51.9224C104.012 51.7137 103.927 51.5436 103.796 51.4121C103.664 51.2807 103.455 51.2188 103.177 51.2188C102.914 51.2188 102.712 51.2807 102.581 51.4121C102.449 51.5436 102.357 51.7137 102.318 51.9224C102.271 52.1312 102.248 52.3632 102.248 52.6106V57.683C102.248 57.9304 102.271 58.1624 102.31 58.3789C102.349 58.5954 102.434 58.7655 102.565 58.897C102.697 59.0284 102.906 59.0903 103.177 59.0903Z" fill="#263238"/>
        <path d="M110.836 60.6677C110.024 60.6677 109.389 60.5285 108.94 60.2501C108.492 59.9718 108.175 59.5697 107.997 59.0439C107.819 58.5181 107.726 57.884 107.726 57.134V49.7961H109.884V57.4356C109.884 57.6985 109.908 57.9614 109.946 58.2165C109.985 58.4717 110.078 58.6805 110.209 58.8428C110.349 59.0052 110.557 59.0826 110.836 59.0826C111.13 59.0826 111.339 59.0052 111.478 58.8428C111.617 58.6805 111.702 58.4794 111.733 58.2165C111.772 57.9614 111.788 57.6985 111.788 57.4356V49.7961H113.946V57.134C113.946 57.884 113.853 58.5258 113.675 59.0439C113.497 59.5697 113.18 59.9718 112.731 60.2501C112.283 60.5285 111.648 60.6677 110.836 60.6677Z" fill="#263238"/>
        <path d="M115.47 60.5208V49.7961H118.256C118.983 49.7961 119.602 49.8811 120.12 50.0435C120.638 50.2059 121.033 50.4997 121.312 50.9095C121.59 51.327 121.729 51.8992 121.729 52.6338C121.729 53.0745 121.691 53.4689 121.613 53.8091C121.536 54.1493 121.404 54.4432 121.219 54.6983C121.025 54.9535 120.762 55.1545 120.414 55.3015L121.9 60.5285H119.664L118.433 55.6649H117.668V60.5285H115.47V60.5208ZM117.66 54.3658H118.294C118.65 54.3658 118.929 54.3117 119.13 54.1957C119.331 54.0797 119.478 53.9096 119.563 53.6699C119.648 53.438 119.687 53.1441 119.687 52.8039C119.687 52.3091 119.594 51.9302 119.416 51.675C119.238 51.4121 118.898 51.2807 118.403 51.2807H117.66V54.3658Z" fill="#263238"/>
        <path d="M126.472 60.5208V49.7961H129.876C130.518 49.7961 131.044 49.9198 131.454 50.1595C131.857 50.3992 132.166 50.7549 132.36 51.2111C132.561 51.6673 132.661 52.224 132.661 52.8812C132.661 53.6467 132.53 54.2499 132.267 54.6829C132.004 55.1159 131.648 55.4252 131.199 55.603C130.75 55.7809 130.232 55.8736 129.652 55.8736H128.661V60.5208H126.472ZM128.654 54.3349H129.42C129.737 54.3349 129.984 54.2808 130.155 54.1803C130.325 54.0797 130.441 53.9174 130.503 53.7009C130.565 53.4844 130.596 53.1983 130.596 52.8503C130.596 52.5256 130.572 52.2472 130.526 52.0307C130.48 51.8142 130.371 51.6363 130.201 51.5126C130.031 51.3889 129.768 51.327 129.404 51.327H128.646V54.3349H128.654Z" fill="#263238"/>
        <path d="M132.654 60.5208L134.735 49.7961H137.156L139.222 60.5208H137.195L136.808 58.1624H135.114L134.704 60.5208H132.654ZM135.323 56.8247H136.607L135.957 52.4946L135.323 56.8247Z" fill="#263238"/>
        <path d="M143.021 60.6677C142.355 60.6677 141.806 60.544 141.365 60.3043C140.924 60.0646 140.591 59.6934 140.367 59.2063C140.143 58.7191 140.011 58.0928 139.972 57.3351L141.852 57.018C141.868 57.4588 141.914 57.8299 141.992 58.1237C142.069 58.4176 142.185 58.6418 142.34 58.7887C142.495 58.9356 142.688 59.0052 142.912 59.0052C143.199 59.0052 143.384 58.9202 143.493 58.7423C143.593 58.5645 143.647 58.3635 143.647 58.1315C143.647 57.683 143.539 57.3041 143.322 57.0026C143.106 56.701 142.82 56.3917 142.471 56.0824L141.357 55.1159C140.963 54.7834 140.638 54.4045 140.382 53.9792C140.127 53.554 140.003 53.0359 140.003 52.4173C140.003 51.5358 140.259 50.8554 140.777 50.3837C141.295 49.912 141.999 49.6723 142.905 49.6723C143.446 49.6723 143.887 49.7574 144.228 49.9352C144.568 50.1131 144.839 50.345 145.032 50.6466C145.226 50.9404 145.357 51.2652 145.427 51.6131C145.496 51.9611 145.551 52.309 145.566 52.6493L143.702 52.9276C143.686 52.6029 143.655 52.3168 143.616 52.0693C143.578 51.8219 143.5 51.6286 143.377 51.4894C143.261 51.3502 143.075 51.2807 142.843 51.2807C142.587 51.2807 142.394 51.3734 142.27 51.5668C142.146 51.7601 142.085 51.9688 142.085 52.1931C142.085 52.572 142.17 52.8812 142.34 53.1287C142.51 53.3684 142.75 53.6235 143.052 53.8942L144.135 54.8452C144.583 55.2319 144.97 55.6803 145.295 56.1752C145.62 56.6778 145.783 57.2887 145.783 58.0232C145.783 58.5258 145.667 58.982 145.435 59.3841C145.202 59.7939 144.885 60.111 144.475 60.3352C144.057 60.5517 143.578 60.6677 143.021 60.6677Z" fill="#263238"/>
        <path d="M149.535 60.6677C148.87 60.6677 148.32 60.544 147.879 60.3043C147.438 60.0646 147.106 59.6934 146.881 59.2063C146.657 58.7191 146.525 58.0928 146.487 57.3351L148.367 57.018C148.382 57.4588 148.429 57.8299 148.506 58.1237C148.583 58.4176 148.699 58.6418 148.854 58.7887C149.009 58.9356 149.202 59.0052 149.427 59.0052C149.713 59.0052 149.899 58.9202 150.007 58.7423C150.107 58.5645 150.162 58.3635 150.162 58.1315C150.162 57.683 150.053 57.3041 149.837 57.0026C149.62 56.701 149.334 56.3917 148.986 56.0824L147.872 55.1159C147.477 54.7834 147.152 54.4045 146.897 53.9792C146.641 53.554 146.518 53.0359 146.518 52.4173C146.518 51.5358 146.773 50.8554 147.291 50.3837C147.81 49.912 148.514 49.6723 149.419 49.6723C149.96 49.6723 150.401 49.7574 150.742 49.9352C151.082 50.1131 151.353 50.345 151.547 50.6466C151.74 50.9404 151.871 51.2652 151.941 51.6131C152.011 51.9611 152.065 52.309 152.08 52.6493L150.216 52.9276C150.2 52.6029 150.169 52.3168 150.131 52.0693C150.092 51.8219 150.015 51.6286 149.891 51.4894C149.775 51.3502 149.589 51.2807 149.357 51.2807C149.102 51.2807 148.908 51.3734 148.784 51.5668C148.661 51.7601 148.599 51.9688 148.599 52.1931C148.599 52.572 148.684 52.8812 148.854 53.1287C149.024 53.3684 149.264 53.6235 149.566 53.8942L150.649 54.8452C151.098 55.2319 151.485 55.6803 151.81 56.1752C152.134 56.6778 152.289 57.2887 152.289 58.0232C152.289 58.5258 152.173 58.982 151.941 59.3841C151.709 59.7939 151.392 60.111 150.982 60.3352C150.579 60.5517 150.092 60.6677 149.535 60.6677Z" fill="#263238"/>
        <path d="M154.417 60.5208L153.024 49.7961H154.881L155.624 56.353L156.568 49.8115H158.038L159.02 56.3376L159.763 49.7961H161.589L160.212 60.5208H158.355L157.31 53.7241L156.32 60.5208H154.417Z" fill="#263238"/>
        <path d="M165.728 60.6677C164.939 60.6677 164.32 60.5285 163.856 60.2424C163.399 59.9563 163.066 59.5542 162.865 59.0284C162.664 58.5026 162.564 57.8763 162.564 57.1418V53.1442C162.564 52.4096 162.664 51.7833 162.865 51.2652C163.066 50.7471 163.391 50.3451 163.856 50.0744C164.312 49.8038 164.939 49.6646 165.728 49.6646C166.525 49.6646 167.151 49.8038 167.616 50.0822C168.08 50.3605 168.413 50.7549 168.606 51.2729C168.807 51.791 168.908 52.4173 168.908 53.1442V57.1418C168.908 57.8763 168.807 58.5026 168.606 59.0284C168.405 59.5542 168.072 59.9563 167.616 60.2424C167.151 60.5285 166.525 60.6677 165.728 60.6677ZM165.728 59.0903C166.014 59.0903 166.215 59.0284 166.347 58.897C166.478 58.7655 166.571 58.5954 166.61 58.3789C166.656 58.1624 166.68 57.9304 166.68 57.683V52.6106C166.68 52.3632 166.656 52.1312 166.61 51.9224C166.563 51.7137 166.478 51.5436 166.347 51.4121C166.215 51.2807 166.006 51.2188 165.728 51.2188C165.465 51.2188 165.264 51.2807 165.132 51.4121C165.001 51.5436 164.908 51.7137 164.869 51.9224C164.823 52.1312 164.8 52.3632 164.8 52.6106V57.683C164.8 57.9304 164.823 58.1624 164.861 58.3789C164.9 58.5954 164.985 58.7655 165.117 58.897C165.256 59.0284 165.457 59.0903 165.728 59.0903Z" fill="#263238"/>
        <path d="M170.37 60.5208V49.7961H173.155C173.882 49.7961 174.501 49.8811 175.02 50.0435C175.538 50.2059 175.933 50.4997 176.211 50.9095C176.49 51.327 176.629 51.8992 176.629 52.6338C176.629 53.0745 176.59 53.4689 176.513 53.8091C176.436 54.1493 176.304 54.4432 176.118 54.6983C175.925 54.9535 175.662 55.1545 175.314 55.3015L176.799 60.5285H174.563L173.333 55.6649H172.567V60.5285H170.37V60.5208ZM172.552 54.3658H173.186C173.542 54.3658 173.821 54.3117 174.022 54.1957C174.223 54.0797 174.37 53.9096 174.455 53.6699C174.54 53.438 174.579 53.1441 174.579 52.8039C174.579 52.3091 174.486 51.9302 174.308 51.675C174.13 51.4121 173.79 51.2807 173.294 51.2807H172.552V54.3658Z" fill="#263238"/>
        <path d="M178.052 60.5208V49.7961H180.675C181.588 49.7961 182.292 49.912 182.803 50.144C183.313 50.376 183.669 50.7471 183.886 51.242C184.095 51.7369 184.203 52.3786 184.203 53.1519V57.0567C184.203 57.8531 184.095 58.5026 183.886 59.013C183.677 59.5233 183.321 59.9022 182.818 60.1419C182.315 60.3816 181.627 60.5053 180.729 60.5053H178.052V60.5208ZM180.234 58.9975H180.698C181.108 58.9975 181.395 58.9356 181.565 58.8042C181.735 58.6727 181.843 58.4872 181.89 58.232C181.936 57.9768 181.96 57.6675 181.96 57.2964V52.8735C181.96 52.5024 181.929 52.2008 181.874 51.9766C181.82 51.7523 181.704 51.5822 181.526 51.4817C181.356 51.3734 181.07 51.3193 180.683 51.3193H180.234V58.9975Z" fill="#263238"/>
        <path d="M87.5717 188.545C87.0224 188.545 86.5814 188.444 86.2642 188.235C85.947 188.027 85.7149 187.74 85.5911 187.369C85.4596 186.998 85.3977 186.573 85.3977 186.078V183.41C85.3977 182.9 85.4596 182.452 85.5911 182.088C85.7226 181.717 85.947 181.431 86.2642 181.23C86.5814 181.029 87.0224 180.928 87.5717 180.928C88.1056 180.928 88.5233 181.013 88.8251 181.191C89.1268 181.369 89.3434 181.616 89.4672 181.941C89.591 182.266 89.6529 182.637 89.6529 183.07V183.696H88.1829V183.001C88.1829 182.83 88.1752 182.668 88.152 182.521C88.1365 182.374 88.0823 182.251 87.9972 182.158C87.9121 182.065 87.7729 182.019 87.5717 182.019C87.3706 182.019 87.2236 182.065 87.1307 182.165C87.0379 182.266 86.9837 182.39 86.9528 182.544C86.9296 182.699 86.9141 182.869 86.9141 183.062V186.434C86.9141 186.642 86.9296 186.82 86.9683 186.983C86.9992 187.137 87.0688 187.261 87.1617 187.338C87.2545 187.423 87.3938 187.462 87.5717 187.462C87.7651 187.462 87.9044 187.416 87.9895 187.323C88.0746 187.23 88.121 187.099 88.1442 186.944C88.1674 186.782 88.1752 186.619 88.1752 186.441V185.715H89.6452V186.325C89.6452 186.758 89.5833 187.145 89.4595 187.478C89.3357 187.81 89.1268 188.073 88.8251 188.266C88.5388 188.452 88.1133 188.545 87.5717 188.545Z" fill="#E8E8E8"/>
        <path d="M90.5968 188.444V181.021H92.1132V184.075H93.4284V181.021H94.9448V188.444H93.4284V185.15H92.1132V188.444H90.5968Z" fill="#E8E8E8"/>
        <path d="M95.7185 188.444L97.1575 181.021H98.8364L100.268 188.444H98.8673L98.6043 186.813H97.4283L97.1421 188.444H95.7185ZM97.5598 185.885H98.4496L98.0008 182.885L97.5598 185.885Z" fill="#E8E8E8"/>
        <path d="M100.964 188.444V181.021H102.016L103.664 184.887V181.021H104.91V188.444H103.904L102.256 184.338V188.444H100.964Z" fill="#E8E8E8"/>
        <path d="M107.942 188.552C107.44 188.552 107.045 188.444 106.751 188.235C106.457 188.027 106.248 187.725 106.124 187.338C106 186.952 105.939 186.503 105.939 185.985V183.503C105.939 182.97 106 182.513 106.132 182.127C106.264 181.74 106.488 181.446 106.805 181.238C107.122 181.029 107.563 180.928 108.113 180.928C108.646 180.928 109.064 181.013 109.374 181.191C109.683 181.369 109.908 181.616 110.039 181.941C110.171 182.266 110.24 182.653 110.24 183.093V183.526H108.763V183.001C108.763 182.807 108.747 182.629 108.724 182.482C108.701 182.336 108.646 182.212 108.554 182.127C108.469 182.042 108.322 181.995 108.128 181.995C107.927 181.995 107.78 182.049 107.687 182.15C107.594 182.251 107.54 182.39 107.509 182.552C107.486 182.714 107.47 182.885 107.47 183.07V186.364C107.47 186.573 107.486 186.758 107.525 186.921C107.563 187.083 107.633 187.215 107.734 187.307C107.834 187.4 107.981 187.447 108.167 187.447C108.352 187.447 108.499 187.4 108.608 187.3C108.708 187.199 108.786 187.068 108.824 186.898C108.863 186.728 108.886 186.542 108.886 186.325V185.537H108.159V184.617H110.248V188.429H109.258L109.165 187.756C109.064 187.98 108.917 188.166 108.724 188.313C108.538 188.483 108.275 188.552 107.942 188.552Z" fill="#E8E8E8"/>
        <path d="M111.292 188.444V181.021H114.534V182.065H112.809V184.037H114.14V185.088H112.809V187.416H114.55V188.444H111.292Z" fill="#E8E8E8"/>
        <path d="M117.606 188.444V181.021H119.965C120.414 181.021 120.778 181.106 121.056 181.276C121.335 181.446 121.544 181.686 121.683 182.003C121.822 182.32 121.892 182.707 121.892 183.155C121.892 183.689 121.799 184.106 121.621 184.4C121.443 184.702 121.195 184.91 120.886 185.034C120.576 185.158 120.213 185.22 119.811 185.22H119.122V188.436H117.606V188.444ZM119.122 184.16H119.656C119.872 184.16 120.043 184.122 120.166 184.052C120.282 183.983 120.368 183.867 120.406 183.72C120.453 183.565 120.468 183.372 120.468 183.132C120.468 182.908 120.453 182.714 120.414 182.56C120.383 182.405 120.306 182.289 120.19 182.204C120.074 182.119 119.888 182.073 119.64 182.073H119.114V184.16H119.122Z" fill="#E8E8E8"/>
        <path d="M121.892 188.444L123.331 181.021H125.01L126.441 188.444H125.041L124.778 186.813H123.602L123.315 188.444H121.892ZM123.733 185.885H124.623L124.174 182.885L123.733 185.885Z" fill="#E8E8E8"/>
        <path d="M129.064 188.545C128.607 188.545 128.22 188.46 127.919 188.289C127.609 188.119 127.385 187.864 127.222 187.532C127.068 187.191 126.975 186.758 126.952 186.233L128.251 186.016C128.267 186.325 128.298 186.581 128.344 186.782C128.398 186.983 128.476 187.137 128.584 187.238C128.692 187.338 128.824 187.393 128.986 187.393C129.18 187.393 129.311 187.331 129.389 187.207C129.458 187.083 129.497 186.944 129.497 186.782C129.497 186.472 129.42 186.209 129.273 186.001C129.126 185.792 128.924 185.575 128.685 185.367L127.911 184.694C127.632 184.462 127.408 184.199 127.238 183.905C127.06 183.611 126.975 183.248 126.975 182.823C126.975 182.212 127.153 181.74 127.509 181.415C127.864 181.091 128.36 180.928 128.979 180.928C129.35 180.928 129.659 180.99 129.899 181.114C130.139 181.238 130.325 181.4 130.456 181.601C130.588 181.802 130.681 182.026 130.735 182.274C130.789 182.513 130.82 182.753 130.828 182.993L129.536 183.186C129.52 182.962 129.505 182.761 129.474 182.591C129.443 182.421 129.389 182.281 129.311 182.189C129.226 182.088 129.102 182.042 128.94 182.042C128.762 182.042 128.63 182.111 128.545 182.243C128.46 182.374 128.414 182.521 128.414 182.676C128.414 182.939 128.476 183.155 128.592 183.325C128.708 183.495 128.878 183.666 129.079 183.851L129.83 184.508C130.139 184.779 130.41 185.081 130.634 185.428C130.859 185.776 130.967 186.202 130.967 186.704C130.967 187.052 130.89 187.369 130.727 187.648C130.565 187.926 130.348 188.15 130.062 188.305C129.783 188.467 129.451 188.545 129.064 188.545Z" fill="#E8E8E8"/>
        <path d="M133.574 188.545C133.118 188.545 132.731 188.46 132.429 188.289C132.12 188.119 131.895 187.864 131.733 187.532C131.578 187.191 131.485 186.758 131.462 186.233L132.762 186.016C132.777 186.325 132.808 186.581 132.855 186.782C132.909 186.983 132.986 187.137 133.094 187.238C133.203 187.338 133.334 187.393 133.497 187.393C133.69 187.393 133.822 187.331 133.899 187.207C133.969 187.083 134.007 186.944 134.007 186.782C134.007 186.472 133.93 186.209 133.783 186.001C133.636 185.792 133.435 185.575 133.195 185.367L132.421 184.694C132.143 184.462 131.918 184.199 131.748 183.905C131.57 183.611 131.485 183.248 131.485 182.823C131.485 182.212 131.663 181.74 132.019 181.415C132.375 181.091 132.87 180.928 133.489 180.928C133.86 180.928 134.17 180.99 134.41 181.114C134.65 181.238 134.835 181.4 134.967 181.601C135.098 181.802 135.191 182.026 135.245 182.274C135.299 182.513 135.33 182.753 135.338 182.993L134.046 183.186C134.031 182.962 134.015 182.761 133.984 182.591C133.953 182.421 133.899 182.281 133.822 182.189C133.737 182.088 133.613 182.042 133.45 182.042C133.272 182.042 133.141 182.111 133.056 182.243C132.971 182.374 132.924 182.521 132.924 182.676C132.924 182.939 132.986 183.155 133.102 183.325C133.218 183.495 133.388 183.666 133.59 183.851L134.34 184.508C134.65 184.779 134.92 185.081 135.145 185.428C135.369 185.776 135.477 186.202 135.477 186.704C135.477 187.052 135.4 187.369 135.238 187.648C135.075 187.926 134.858 188.15 134.572 188.305C134.294 188.467 133.961 188.545 133.574 188.545Z" fill="#E8E8E8"/>
        <path d="M136.955 188.444L135.996 181.021H137.28L137.791 185.56L138.441 181.029H139.462L140.143 185.552L140.653 181.021H141.922L140.97 188.444H139.686L138.959 183.743L138.27 188.444H136.955Z" fill="#E8E8E8"/>
        <path d="M144.785 188.545C144.243 188.545 143.81 188.444 143.493 188.251C143.175 188.057 142.943 187.779 142.812 187.416C142.673 187.052 142.603 186.619 142.603 186.109V183.341C142.603 182.83 142.673 182.397 142.812 182.042C142.951 181.678 143.175 181.408 143.493 181.214C143.81 181.029 144.243 180.928 144.785 180.928C145.334 180.928 145.767 181.021 146.092 181.214C146.409 181.408 146.641 181.678 146.781 182.042C146.92 182.397 146.99 182.83 146.99 183.341V186.109C146.99 186.619 146.92 187.052 146.781 187.416C146.641 187.779 146.417 188.057 146.092 188.251C145.775 188.444 145.334 188.545 144.785 188.545ZM144.785 187.454C144.978 187.454 145.125 187.408 145.218 187.323C145.311 187.238 145.373 187.114 145.404 186.967C145.435 186.82 145.45 186.658 145.45 186.488V182.977C145.45 182.807 145.435 182.645 145.404 182.498C145.373 182.351 145.311 182.235 145.218 182.142C145.125 182.057 144.986 182.011 144.785 182.011C144.599 182.011 144.467 182.057 144.375 182.142C144.282 182.227 144.22 182.351 144.189 182.498C144.158 182.645 144.143 182.807 144.143 182.977V186.488C144.143 186.658 144.158 186.82 144.181 186.967C144.212 187.114 144.266 187.238 144.359 187.323C144.452 187.408 144.599 187.454 144.785 187.454Z" fill="#E8E8E8"/>
        <path d="M147.995 188.444V181.021H149.922C150.425 181.021 150.85 181.075 151.214 181.191C151.57 181.307 151.848 181.508 152.042 181.794C152.235 182.08 152.328 182.482 152.328 182.985C152.328 183.294 152.305 183.565 152.251 183.797C152.196 184.029 152.104 184.238 151.972 184.408C151.841 184.586 151.655 184.725 151.415 184.825L152.444 188.444H150.897L150.046 185.081H149.512V188.444H147.995ZM149.512 184.184H149.953C150.2 184.184 150.386 184.145 150.533 184.068C150.672 183.99 150.773 183.867 150.835 183.704C150.889 183.542 150.92 183.341 150.92 183.101C150.92 182.761 150.858 182.498 150.734 182.32C150.61 182.142 150.378 182.049 150.03 182.049H149.519V184.184H149.512Z" fill="#E8E8E8"/>
        <path d="M153.318 188.444V181.021H155.136C155.763 181.021 156.258 181.098 156.606 181.261C156.954 181.423 157.21 181.678 157.357 182.019C157.504 182.366 157.573 182.807 157.573 183.341V186.047C157.573 186.596 157.504 187.052 157.357 187.408C157.21 187.764 156.962 188.027 156.622 188.189C156.274 188.359 155.794 188.444 155.175 188.444H153.318ZM154.835 187.392H155.152C155.43 187.392 155.632 187.346 155.755 187.261C155.871 187.176 155.949 187.045 155.98 186.867C156.011 186.689 156.026 186.48 156.026 186.217V183.155C156.026 182.9 156.003 182.691 155.964 182.537C155.926 182.382 155.848 182.266 155.724 182.196C155.608 182.127 155.415 182.088 155.144 182.088H154.835V187.392Z" fill="#E8E8E8"/>
        <path d="M91.3396 130.189C90.8676 130.189 90.4963 130.088 90.2332 129.887C89.9702 129.686 89.7922 129.423 89.6839 129.083C89.5833 128.751 89.5292 128.372 89.5292 127.962V125.596C89.5292 125.147 89.5833 124.753 89.6839 124.413C89.7845 124.08 89.9702 123.817 90.2332 123.632C90.4963 123.446 90.8599 123.354 91.3396 123.354C91.7573 123.354 92.09 123.431 92.3376 123.585C92.5852 123.74 92.7631 123.964 92.8637 124.25C92.972 124.537 93.0262 124.885 93.0262 125.287V125.812H92.1442V125.341C92.1442 125.093 92.1287 124.877 92.1055 124.683C92.0823 124.49 92.0127 124.343 91.9043 124.243C91.796 124.134 91.6103 124.088 91.3473 124.088C91.0843 124.088 90.8908 124.142 90.767 124.258C90.6433 124.374 90.5659 124.529 90.5349 124.738C90.4963 124.946 90.4808 125.186 90.4808 125.464V128.117C90.4808 128.449 90.5117 128.72 90.5659 128.913C90.62 129.106 90.7129 129.246 90.8367 129.331C90.9605 129.416 91.1384 129.454 91.3473 129.454C91.6026 129.454 91.7806 129.4 91.8966 129.284C92.0049 129.168 92.0746 129.014 92.1055 128.82C92.1364 128.619 92.1442 128.387 92.1442 128.124V127.629H93.0262V128.124C93.0262 128.534 92.9797 128.89 92.8792 129.207C92.7786 129.516 92.6084 129.764 92.3685 129.934C92.121 130.104 91.7806 130.189 91.3396 130.189Z" fill="#263238"/>
        <path d="M95.6334 130.189C95.1847 130.189 94.8211 130.104 94.5503 129.926C94.2795 129.748 94.0861 129.501 93.97 129.168C93.854 128.843 93.7998 128.457 93.7998 128.016V125.48C93.7998 125.039 93.8617 124.66 93.9778 124.343C94.0938 124.026 94.2872 123.787 94.558 123.616C94.8288 123.446 95.1847 123.361 95.6411 123.361C96.0899 123.361 96.4535 123.446 96.7165 123.616C96.9796 123.787 97.173 124.026 97.2891 124.343C97.4051 124.66 97.467 125.039 97.467 125.48V128.032C97.467 128.465 97.4051 128.851 97.2891 129.176C97.173 129.501 96.9796 129.756 96.7165 129.934C96.4535 130.112 96.0899 130.189 95.6334 130.189ZM95.6334 129.454C95.881 129.454 96.0667 129.4 96.1982 129.3C96.322 129.199 96.4071 129.052 96.4535 128.867C96.4999 128.681 96.5231 128.465 96.5231 128.217V125.279C96.5231 125.031 96.4999 124.815 96.4535 124.637C96.4071 124.459 96.322 124.32 96.1982 124.22C96.0744 124.127 95.881 124.073 95.6334 124.073C95.3858 124.073 95.1924 124.119 95.0686 124.22C94.9371 124.312 94.852 124.452 94.8056 124.637C94.7592 124.815 94.7359 125.031 94.7359 125.279V128.217C94.7359 128.465 94.7592 128.681 94.8056 128.867C94.852 129.052 94.9371 129.191 95.0686 129.3C95.2001 129.4 95.3858 129.454 95.6334 129.454Z" fill="#263238"/>
        <path d="M98.3877 130.112V123.408H99.0221L100.925 127.861V123.408H101.707V130.112H101.111L99.1846 125.534V130.112H98.3877Z" fill="#263238"/>
        <path d="M102.751 130.112V123.408H105.343V124.08H103.687V126.315H104.972V126.98H103.687V130.112H102.751Z" fill="#263238"/>
        <path d="M106.039 130.112V123.408H106.96V130.112H106.039Z" fill="#263238"/>
        <path d="M108.043 130.112V123.408H109.389C109.838 123.408 110.209 123.47 110.496 123.585C110.79 123.701 111.006 123.895 111.146 124.158C111.285 124.421 111.354 124.761 111.354 125.186C111.354 125.449 111.323 125.681 111.269 125.89C111.215 126.098 111.122 126.284 111.006 126.431C110.882 126.578 110.728 126.686 110.527 126.748L111.478 130.104H110.573L109.699 126.957H108.972V130.104H108.043V130.112ZM108.979 126.3H109.335C109.598 126.3 109.815 126.269 109.977 126.199C110.14 126.129 110.264 126.021 110.341 125.859C110.418 125.696 110.457 125.472 110.457 125.186C110.457 124.792 110.387 124.513 110.24 124.336C110.093 124.165 109.815 124.073 109.389 124.073H108.972V126.3H108.979Z" fill="#263238"/>
        <path d="M112.322 130.112L112.445 123.408H113.366L114.55 128.843L115.741 123.408H116.654L116.778 130.112H116.027L115.95 125.248L114.813 130.112H114.287L113.157 125.248L113.08 130.112H112.322Z" fill="#263238"/>
        <path d="M119.695 130.112V123.408H121.358C121.76 123.408 122.085 123.477 122.325 123.624C122.565 123.771 122.743 123.98 122.851 124.258C122.959 124.537 123.014 124.869 123.014 125.256C123.014 125.611 122.952 125.913 122.828 126.176C122.704 126.431 122.518 126.632 122.279 126.779C122.039 126.918 121.729 126.988 121.366 126.988H120.631V130.104H119.695V130.112ZM120.631 126.323H121.064C121.335 126.323 121.544 126.292 121.698 126.23C121.853 126.168 121.961 126.06 122.031 125.913C122.101 125.758 122.132 125.549 122.132 125.271C122.132 124.954 122.108 124.707 122.062 124.537C122.016 124.366 121.915 124.25 121.768 124.181C121.621 124.111 121.389 124.08 121.072 124.08H120.631V126.323Z" fill="#263238"/>
        <path d="M122.99 130.112L124.414 123.408H125.319L126.75 130.112H125.868L125.559 128.426H124.19L123.865 130.112H122.99ZM124.313 127.753H125.427L124.863 124.73L124.313 127.753Z" fill="#263238"/>
        <path d="M129.01 130.189C128.623 130.189 128.306 130.104 128.042 129.941C127.787 129.779 127.594 129.547 127.462 129.253C127.331 128.959 127.253 128.619 127.23 128.233L128.058 128.008C128.073 128.248 128.112 128.472 128.166 128.697C128.228 128.921 128.321 129.099 128.453 129.238C128.584 129.377 128.77 129.447 129.01 129.447C129.249 129.447 129.435 129.377 129.559 129.246C129.683 129.106 129.745 128.913 129.745 128.666C129.745 128.364 129.675 128.117 129.536 127.931C129.396 127.745 129.226 127.56 129.017 127.374L127.895 126.385C127.671 126.191 127.509 125.983 127.408 125.751C127.3 125.519 127.253 125.24 127.253 124.9C127.253 124.413 127.393 124.026 127.679 123.756C127.957 123.485 128.344 123.354 128.832 123.354C129.095 123.354 129.327 123.384 129.528 123.454C129.729 123.524 129.899 123.632 130.031 123.771C130.162 123.918 130.271 124.096 130.356 124.312C130.433 124.529 130.487 124.784 130.518 125.078L129.721 125.294C129.706 125.078 129.675 124.869 129.621 124.683C129.574 124.498 129.481 124.351 129.358 124.235C129.234 124.119 129.056 124.065 128.824 124.065C128.592 124.065 128.414 124.127 128.282 124.25C128.151 124.374 128.089 124.56 128.089 124.799C128.089 125 128.12 125.171 128.189 125.302C128.259 125.434 128.367 125.573 128.522 125.704L129.659 126.694C129.915 126.918 130.139 127.181 130.333 127.483C130.526 127.792 130.619 128.148 130.619 128.573C130.619 128.905 130.549 129.191 130.41 129.431C130.271 129.671 130.085 129.856 129.845 129.98C129.598 130.127 129.327 130.189 129.01 130.189Z" fill="#263238"/>
        <path d="M132.924 130.189C132.538 130.189 132.22 130.104 131.957 129.941C131.702 129.779 131.509 129.547 131.377 129.253C131.245 128.959 131.168 128.619 131.145 128.233L131.973 128.008C131.988 128.248 132.027 128.472 132.081 128.697C132.143 128.921 132.236 129.099 132.367 129.238C132.499 129.377 132.685 129.447 132.924 129.447C133.164 129.447 133.35 129.377 133.474 129.246C133.597 129.106 133.659 128.913 133.659 128.666C133.659 128.364 133.59 128.117 133.45 127.931C133.311 127.745 133.141 127.56 132.932 127.374L131.81 126.385C131.586 126.191 131.423 125.983 131.323 125.751C131.215 125.519 131.168 125.24 131.168 124.9C131.168 124.413 131.307 124.026 131.594 123.756C131.872 123.485 132.259 123.354 132.746 123.354C133.009 123.354 133.242 123.384 133.443 123.454C133.644 123.524 133.814 123.632 133.946 123.771C134.077 123.918 134.185 124.096 134.271 124.312C134.348 124.529 134.402 124.784 134.433 125.078L133.636 125.294C133.621 125.078 133.59 124.869 133.536 124.683C133.489 124.498 133.396 124.351 133.272 124.235C133.149 124.119 132.971 124.065 132.739 124.065C132.507 124.065 132.329 124.127 132.197 124.25C132.066 124.374 132.004 124.56 132.004 124.799C132.004 125 132.035 125.171 132.104 125.302C132.174 125.434 132.282 125.573 132.437 125.704L133.574 126.694C133.83 126.918 134.054 127.181 134.247 127.483C134.441 127.792 134.534 128.148 134.534 128.573C134.534 128.905 134.464 129.191 134.325 129.431C134.185 129.671 134 129.856 133.76 129.98C133.512 130.127 133.242 130.189 132.924 130.189Z" fill="#263238"/>
        <path d="M136.127 130.112L135.036 123.408H135.818L136.537 128.225L137.443 123.439H138.108L139.021 128.256L139.725 123.415H140.483L139.408 130.119H138.727L137.791 125.155L136.847 130.119H136.127V130.112Z" fill="#263238"/>
        <path d="M142.936 130.189C142.487 130.189 142.123 130.104 141.853 129.926C141.582 129.748 141.388 129.501 141.272 129.168C141.156 128.843 141.102 128.457 141.102 128.016V125.48C141.102 125.039 141.164 124.66 141.28 124.343C141.396 124.026 141.589 123.787 141.86 123.616C142.131 123.446 142.487 123.361 142.943 123.361C143.392 123.361 143.756 123.446 144.019 123.616C144.282 123.787 144.475 124.026 144.591 124.343C144.707 124.66 144.769 125.039 144.769 125.48V128.032C144.769 128.465 144.707 128.851 144.591 129.176C144.475 129.501 144.282 129.756 144.019 129.934C143.756 130.112 143.392 130.189 142.936 130.189ZM142.936 129.454C143.183 129.454 143.369 129.4 143.5 129.3C143.624 129.199 143.709 129.052 143.756 128.867C143.802 128.681 143.825 128.465 143.825 128.217V125.279C143.825 125.031 143.802 124.815 143.756 124.637C143.709 124.459 143.624 124.32 143.5 124.22C143.377 124.127 143.183 124.073 142.936 124.073C142.688 124.073 142.495 124.119 142.371 124.22C142.239 124.312 142.154 124.452 142.108 124.637C142.061 124.815 142.038 125.031 142.038 125.279V128.217C142.038 128.465 142.061 128.681 142.108 128.867C142.154 129.052 142.239 129.191 142.371 129.3C142.502 129.4 142.688 129.454 142.936 129.454Z" fill="#263238"/>
        <path d="M145.69 130.112V123.408H147.036C147.485 123.408 147.856 123.47 148.142 123.585C148.436 123.701 148.653 123.895 148.792 124.158C148.932 124.421 149.001 124.761 149.001 125.186C149.001 125.449 148.97 125.681 148.916 125.89C148.862 126.098 148.769 126.284 148.653 126.431C148.529 126.578 148.375 126.686 148.173 126.748L149.125 130.104H148.22L147.346 126.957H146.618V130.104H145.69V130.112ZM146.626 126.3H146.982C147.245 126.3 147.462 126.269 147.624 126.199C147.787 126.129 147.91 126.021 147.988 125.859C148.065 125.696 148.104 125.472 148.104 125.186C148.104 124.792 148.034 124.513 147.887 124.336C147.74 124.165 147.462 124.073 147.036 124.073H146.618V126.3H146.626Z" fill="#263238"/>
        <path d="M149.984 130.112V123.408H151.438C151.933 123.408 152.328 123.485 152.614 123.632C152.9 123.787 153.109 124.011 153.233 124.312C153.357 124.614 153.419 124.993 153.419 125.449V127.916C153.419 128.387 153.357 128.789 153.233 129.114C153.109 129.439 152.908 129.686 152.63 129.856C152.351 130.027 151.98 130.112 151.508 130.112H149.984ZM150.92 129.447H151.454C151.794 129.447 152.042 129.377 152.181 129.246C152.328 129.114 152.413 128.921 152.444 128.666C152.475 128.41 152.49 128.109 152.49 127.745V125.573C152.49 125.225 152.467 124.946 152.421 124.73C152.374 124.513 152.282 124.359 152.135 124.258C151.988 124.158 151.748 124.111 151.431 124.111H150.928V129.447H150.92Z" fill="#263238"/>
        <path d="M61.1818 266.084L55.1936 297.276L45.6001 325.793L43.2327 330.247C43.2327 330.247 40.5867 334.144 40.3082 337.067C40.0297 339.99 42.8149 341.66 44.9038 340.686C46.9927 339.711 48.1068 335.675 48.5246 333.866C48.9423 332.056 49.7779 328.855 50.0564 327.742C50.3349 326.628 50.892 325.793 50.892 325.793C50.892 325.793 67.4485 298.251 67.4485 297.416C67.4485 296.58 75.2471 276.252 75.2471 276.252L76.779 276.391L81.3746 299.086L68.5549 325.685C68.5549 325.685 64.5163 330.417 64.7948 330.974C65.0734 331.53 67.3015 333.757 68.1371 334.314C68.9727 334.871 72.0364 339.742 74.2646 340.299C76.4927 340.856 77.3283 341.412 76.9105 339.603C76.4927 337.794 75.2394 335.01 74.9609 334.175C74.6823 333.34 74.133 327.517 74.133 327.517L93.3587 302.148L90.8521 270.816L61.1818 266.084Z" fill="white" stroke="#263238" stroke-miterlimit="10" stroke-linecap="round" stroke-linejoin="round"/>
        <path d="M69.8624 334.198C68.9185 333.494 66.7445 331.237 65.3596 329.783C64.9728 330.371 64.7252 330.827 64.8026 330.974C65.0811 331.53 67.3093 333.757 68.1449 334.314C68.9804 334.871 72.0441 339.742 74.2723 340.299C75.7578 340.67 76.6243 341.041 76.9105 340.709C72.3923 339.526 71.0693 335.095 69.8624 334.198Z" fill="white" stroke="#263238" stroke-miterlimit="10" stroke-linecap="round" stroke-linejoin="round"/>
        <path d="M47.4956 337.214C46.0411 338.675 44.339 339.781 42.5287 339.24C40.4011 338.606 40.9117 335.404 41.4765 333.355C40.9194 334.538 40.4165 335.884 40.3005 337.075C40.022 339.997 42.8072 341.668 44.8961 340.693C46.0411 340.16 46.8922 338.714 47.4956 337.214Z" fill="white" stroke="#263238" stroke-miterlimit="10" stroke-linecap="round" stroke-linejoin="round"/>
        <path d="M61.1818 266.084L55.1936 297.276L45.6001 325.793C45.6001 325.793 46.4589 328.847 50.2344 327.169C50.5206 326.358 50.892 325.793 50.892 325.793C50.892 325.793 67.4485 298.251 67.4485 297.416C67.4485 296.58 75.2471 276.252 75.2471 276.252L76.779 276.391L81.3746 299.086L68.5549 325.685C68.5549 325.685 70.226 328.492 74.1872 327.456L93.3588 302.155L90.8521 270.824L61.1818 266.084Z" fill="#263238" stroke="#263238" stroke-miterlimit="10" stroke-linecap="round" stroke-linejoin="round"/>
        <path d="M84.7091 222.598L81.2354 223.239L65.3132 269.502C65.3132 269.502 68.3305 274.806 78.1175 274.713C87.9044 274.621 90.7438 273.066 90.7438 273.066L90.473 245.091L94.4883 226.572C94.4961 226.572 88.2835 222.783 84.7091 222.598Z" fill="white" stroke="#263238" stroke-miterlimit="10"/>
        <path d="M102.643 209.886C102.643 209.886 102.643 214.139 102.426 214.718C102.21 215.306 101.103 216.11 101.103 216.621C101.103 217.131 102.349 219.188 102.132 219.698C101.916 220.208 99.7106 220.796 99.7106 220.796C99.7106 220.796 97.877 224.384 96.995 224.755C96.113 225.118 92.6702 223.363 92.6702 223.363L90.6896 229.441C90.6896 229.441 89.8076 231.126 86.5118 230.616C83.2159 230.106 82.04 228.861 81.893 228.049C81.746 227.245 81.3823 227.021 81.8233 226.147C82.2643 225.265 82.9219 223.363 82.9219 223.363L87.0998 214.572L87.7574 210.543C87.7574 210.543 89.2273 207.682 94.6508 207.102C100.082 206.522 102.643 209.886 102.643 209.886Z" fill="white" stroke="#263238" stroke-miterlimit="10"/>
        <path d="M97.0027 219.265C97.0027 219.265 97.1497 220.587 98.8363 221.02" stroke="#263238" stroke-miterlimit="10" stroke-linecap="round" stroke-linejoin="round"/>
        <path d="M100.956 214.355C100.956 214.355 100.005 213.18 98.7589 213.551" stroke="#263238" stroke-miterlimit="10" stroke-linecap="round" stroke-linejoin="round"/>
        <path d="M99.8499 216.103C99.7725 216.481 99.5017 216.744 99.2387 216.69C98.9833 216.636 98.8363 216.288 98.9137 215.909C98.9911 215.53 99.2619 215.267 99.5249 215.322C99.7802 215.376 99.9272 215.724 99.8499 216.103Z" fill="#263238"/>
        <path d="M92.6779 223.371L90.5503 221.469L92.0899 225.42L92.6779 223.371Z" fill="#263238" stroke="#263238" stroke-miterlimit="10" stroke-linecap="round" stroke-linejoin="round"/>
        <path d="M91.2079 213.404C91.2079 213.404 94.2098 212.376 95.0221 211.865C95.8267 211.355 94.7281 209.669 95.3858 209.082C96.0434 208.494 98.906 208.2 100.446 208.718C101.985 209.229 102.055 210.404 103.525 210.187C104.995 209.971 106.821 208.796 106.016 206.746C105.211 204.697 102.79 202.934 100.809 202.718C98.8286 202.501 96.7784 203.012 94.2098 202.718C91.6412 202.424 89.003 201.473 87.6104 204.257C86.2178 207.04 85.0418 210.048 85.5601 211.51C86.0708 212.979 86.2951 214.804 86.8831 215.097C87.4711 215.383 91.2079 213.404 91.2079 213.404Z" fill="#263238" stroke="#263238" stroke-miterlimit="10"/>
        <path d="M91.5715 214.432C91.5715 214.432 91.2775 210.914 89.7379 211.571C88.1983 212.229 88.3453 215.6 89.2969 216.257C90.2486 216.914 91.0532 215.894 91.0532 215.894" fill="white"/>
        <path d="M91.5715 214.432C91.5715 214.432 91.2775 210.914 89.7379 211.571C88.1983 212.229 88.3453 215.6 89.2969 216.257C90.2486 216.914 91.0532 215.894 91.0532 215.894" stroke="#263238" stroke-miterlimit="10"/>
        <path d="M80.8021 229.742L66.141 277.288C66.141 277.288 62.3268 274.288 60.1992 272.231C58.0716 270.182 57.561 269.595 57.561 269.595L62.8375 257.942L63.7891 254.207L48.3234 264.468L45.6852 259.264L58.8066 247.542C58.8066 247.542 66.8683 225.196 67.3866 224.902C67.8972 224.608 82.5583 222.629 82.5583 222.629L80.8021 229.742Z" fill="#B2B2B2" stroke="#263238" stroke-miterlimit="10"/>
        <path d="M83.951 221.391C83.951 221.391 81.7537 220.804 80.6551 221.902C79.5565 223 75.5257 228.791 76.5469 229.371C77.5759 229.959 80.3611 228.42 80.3611 228.42L80.8021 229.742L83.951 221.391Z" fill="white" stroke="#263238" stroke-miterlimit="10"/>
        <path d="M68.5549 232.309L63.7891 254.215" stroke="#263238" stroke-miterlimit="10" stroke-linecap="round" stroke-linejoin="round"/>
        <path d="M76.3999 238.24L68.9959 237.366L68.5549 239.779L76.0363 241.101L76.3999 239.779" stroke="#263238" stroke-miterlimit="10" stroke-linecap="round" stroke-linejoin="round"/>
        <path d="M67.9282 235.016C67.9282 235.016 67.1468 230.662 66.9689 228.312" stroke="#263238" stroke-miterlimit="10" stroke-linecap="round" stroke-linejoin="round"/>
        <path d="M67.4872 235.975C67.4872 235.975 66.1797 233.802 65.3132 232.402" stroke="#263238" stroke-miterlimit="10" stroke-linecap="round" stroke-linejoin="round"/>
        <path d="M90.6973 229.449C90.6973 229.449 87.092 244.596 87.1771 249.205C87.2622 253.821 88.4846 278.286 88.4846 278.286C88.4846 278.286 93.1886 277.412 93.97 277.157C94.7514 276.894 97.7996 275.935 97.7996 275.935C97.7996 275.935 92.4845 258.7 92.4845 258.089C92.4845 257.478 93.4439 253.388 93.4439 253.388C93.4439 253.388 96.5772 260.44 97.0182 260.965C97.4515 261.491 109.451 266.896 109.451 266.896L110.519 260.532L102.937 253.566C102.937 253.566 101.281 240.421 101.281 239.377C101.281 238.333 101.714 231.714 101.714 231.714L92.2215 224.229L90.6973 229.449Z" fill="#B2B2B2" stroke="#263238" stroke-miterlimit="10"/>
        <path d="M119.733 264.747C119.733 264.747 115.934 265.574 114.96 265.674C113.985 265.775 112.136 265.574 111.308 265.288C110.48 264.994 108.871 264.36 108.871 264.36C108.871 264.36 108.53 263.386 108.77 262.852C109.01 262.319 110.333 262.365 110.333 262.365L118.565 263.192L119.733 264.747Z" fill="white" stroke="#263238" stroke-miterlimit="10"/>
        <path d="M97.7146 237.892L93.4517 253.388" stroke="#263238" stroke-miterlimit="10" stroke-linecap="round" stroke-linejoin="round"/>
        <path d="M95.3626 241.983L90.2255 240.676L89.9624 242.771L94.4961 243.985" stroke="#263238" stroke-miterlimit="10" stroke-linecap="round" stroke-linejoin="round"/>
        <path d="M96.059 244.511L98.674 240.769" stroke="#263238" stroke-miterlimit="10" stroke-linecap="round" stroke-linejoin="round"/>
        <path d="M90.3105 231.884L91.2699 230.925C91.2699 230.925 93.4439 233.454 93.8849 232.665C94.3182 231.884 95.1924 229.882 94.4961 226.572C93.7998 223.263 92.678 223.371 92.678 223.371L90.6974 229.449L90.3105 231.884Z" fill="white" stroke="#263238" stroke-miterlimit="10"/>
        <path d="M46.6213 253.048C46.6213 253.048 44.3313 253.535 43.8361 253.782C43.3487 254.03 43.2636 255.012 42.606 255.414C41.9484 255.823 40.9735 256.396 41.5461 256.805C42.1186 257.215 43.31 257.517 43.9058 256.713C44.4937 255.908 45.9714 255.228 46.2113 255.321" fill="white"/>
        <path d="M46.6213 253.048C46.6213 253.048 44.3313 253.535 43.8361 253.782C43.3487 254.03 43.2636 255.012 42.606 255.414C41.9484 255.823 40.9735 256.396 41.5461 256.805C42.1186 257.215 43.31 257.517 43.9058 256.713C44.4937 255.908 45.9714 255.228 46.2113 255.321" stroke="#263238" stroke-miterlimit="10"/>
        <path d="M129.76 264.283C129.76 264.283 128.886 264.228 128.375 263.819C127.865 263.409 127.044 263.254 126.58 263.154C126.116 263.053 126.271 262.643 126.936 262.388C127.601 262.133 128.832 262.234 129.451 262.489C130.069 262.744 130.371 263.053 130.371 263.053L129.76 264.283Z" fill="white" stroke="#263238" stroke-miterlimit="10"/>
        <path d="M240.596 256.334H99.5559V262.844H240.596V256.334Z" fill="#836FFF" stroke="#263238" stroke-miterlimit="10"/>
        <path d="M74.1486 230.33C57.9789 230.33 44.8729 243.429 44.8729 259.589C44.8729 275.75 57.9789 288.848 74.1486 288.848C90.3183 288.848 103.424 275.75 103.424 259.589C103.424 243.429 90.3183 230.33 74.1486 230.33ZM74.1486 281.185C62.2109 281.185 52.5323 271.512 52.5323 259.581C52.5323 247.65 62.2109 237.977 74.1486 237.977C86.0863 237.977 95.7649 247.65 95.7649 259.581C95.7572 271.52 86.0863 281.185 74.1486 281.185Z" fill="#836FFF" stroke="#263238" stroke-miterlimit="10"/>
        <path d="M215.235 256.334V286.869H221.247C221.247 286.815 221.239 286.76 221.239 286.699C221.239 282.786 224.419 279.608 228.333 279.608C232.248 279.608 235.428 282.786 235.428 286.699C235.428 286.753 235.42 286.807 235.42 286.869H240.596V256.334H215.235Z" fill="#836FFF" stroke="#263238" stroke-miterlimit="10"/>
        <path d="M182.269 256.334V273.855H185.72C185.72 273.824 185.712 273.793 185.712 273.762C185.712 271.512 187.538 269.695 189.781 269.695C192.033 269.695 193.851 271.52 193.851 273.762C193.851 273.793 193.843 273.824 193.843 273.855H196.814V256.334H182.269Z" fill="#836FFF" stroke="#263238" stroke-miterlimit="10"/>
        <path d="M45.5615 257.416C45.5615 257.416 42.9387 256.914 42.7066 257.316C42.4591 257.733 42.3507 258.916 43.194 259.009C44.0373 259.102 45.8168 258.947 46.1882 258.429C46.5518 257.911 45.5615 257.416 45.5615 257.416Z" fill="white" stroke="#263238" stroke-miterlimit="10"/>
        <path d="M45.3216 259.38C45.3216 259.38 42.6989 258.878 42.4668 259.28C42.2192 259.697 42.1109 260.88 42.9542 260.973C43.7975 261.066 45.5769 260.911 45.9483 260.393C46.3119 259.875 45.3216 259.38 45.3216 259.38Z" fill="white" stroke="#263238" stroke-miterlimit="10"/>
        <path d="M46.0334 261.661C46.0334 261.661 43.4107 261.159 43.1786 261.561C42.931 261.978 42.8227 263.161 43.666 263.254C44.5093 263.347 46.2887 263.192 46.6601 262.674C47.0237 262.156 46.0334 261.661 46.0334 261.661Z" fill="white" stroke="#263238" stroke-miterlimit="10"/>
        <path d="M46.103 263.602C46.103 263.602 43.9057 263.277 43.6969 263.587C43.4802 263.911 43.3564 264.816 44.0682 264.878C44.7723 264.932 46.2732 264.777 46.6059 264.368C46.9308 263.958 46.103 263.602 46.103 263.602Z" fill="white" stroke="#263238" stroke-miterlimit="10"/>
        <path d="M109.451 266.888L108.577 262.898" stroke="#263238" stroke-miterlimit="10"/>
        <path d="M115.633 265.365L120.615 264.654L122.944 262.651C122.944 262.651 123.787 259.999 123.911 259.674C124.043 259.349 123.78 258.708 123.137 258.901C122.488 259.094 122.294 260.068 122.294 260.068C122.294 260.068 121.776 258.259 121.257 258.646C120.739 259.032 120.677 259.55 120.677 259.55C120.677 259.55 119.834 258.514 119.447 258.839C119.06 259.164 118.929 260.13 118.929 260.13C118.929 260.13 117.962 259.357 117.637 259.806C117.312 260.262 117.637 261.035 117.637 261.035L118.023 262.589L117.374 262.721L114.658 262.852" fill="white"/>
        <path d="M115.633 265.365L120.615 264.654L122.944 262.651C122.944 262.651 123.787 259.999 123.911 259.674C124.043 259.349 123.78 258.708 123.137 258.901C122.488 259.094 122.294 260.068 122.294 260.068C122.294 260.068 121.776 258.259 121.257 258.646C120.739 259.032 120.677 259.55 120.677 259.55C120.677 259.55 119.834 258.514 119.447 258.839C119.06 259.164 118.929 260.13 118.929 260.13C118.929 260.13 117.962 259.357 117.637 259.806C117.312 260.262 117.637 261.035 117.637 261.035L118.023 262.589L117.374 262.721L114.658 262.852" stroke="#263238" stroke-miterlimit="10"/>
        <path d="M120.677 259.543C120.677 259.543 121.219 261.538 121.288 261.762C121.366 261.986 120.871 264.391 120.608 264.646" stroke="#263238" stroke-miterlimit="10"/>
        <path d="M122.294 260.061C122.294 260.061 122.898 261.994 122.604 262.775" stroke="#263238" stroke-miterlimit="10"/>
        <path d="M118.929 260.123L119.787 261.839C119.787 261.839 119.749 264.012 119.447 264.576" stroke="#263238" stroke-miterlimit="10"/>
        <path d="M118.023 262.581L118.07 263.417" stroke="#263238" stroke-miterlimit="10"/>
        <path d="M114.921 262.968C114.921 262.968 114.17 263.641 114.805 264.538" stroke="#263238" stroke-miterlimit="10"/>
    </g>
    <defs>
        <clipPath id="clip0_34_1506">
            <rect width="370" height="342" fill="white"/>
        </clipPath>
    </defs>
</svg>
