<svg width="283" height="237" viewBox="0 0 283 237" fill="none" xmlns="http://www.w3.org/2000/svg">
<g clip-path="url(#clip0_76_269)">
<path d="M225.939 232.77C216.15 227.129 216.15 217.986 225.939 212.346C235.728 206.706 251.599 206.706 261.388 212.346C271.177 217.986 271.177 227.129 261.388 232.77C251.599 238.41 235.728 238.41 225.939 232.77Z" fill="#E0E0E0"/>
<path d="M26.8389 233.548L1.08978 218.713C-0.361144 217.879 -0.361144 216.519 1.08978 215.684L150.864 129.385C152.315 128.551 154.672 128.551 156.123 129.385L181.872 144.22C183.323 145.054 183.323 146.414 181.872 147.248L32.0978 233.548C30.6468 234.389 28.2899 234.389 26.8389 233.548Z" fill="#E0E0E0"/>
<path d="M119.394 207.11L141.532 194.337C143.813 193.022 144.953 191.302 144.953 189.576C144.953 187.85 144.966 186.503 144.966 186.503L121.998 173.578C120.782 172.876 119.793 171.169 119.793 169.772V142.538L81.1314 164.833V192.067C81.1314 193.471 82.1198 195.172 83.3363 195.874L102.876 207.11C107.432 209.734 114.832 209.734 119.394 207.11Z" fill="#836FFF"/>
<g opacity="0.6">
<path d="M119.394 207.11L141.532 194.337C143.813 193.022 144.953 191.302 144.953 189.576C144.953 187.85 144.966 186.503 144.966 186.503L121.998 173.578C120.782 172.876 119.793 171.169 119.793 169.772V142.538L81.1314 164.833V192.067C81.1314 193.471 82.1198 195.172 83.3363 195.874L102.876 207.11C107.432 209.734 114.832 209.734 119.394 207.11Z" fill="black"/>
</g>
<path opacity="0.3" d="M90.4072 196.885V199.946L83.3236 195.867C82.1135 195.172 81.1251 193.465 81.1251 192.061V164.827L88.4937 160.584C88.6458 162.449 88.8105 164.378 88.9626 166.262L83.7988 169.247V190.524C83.7988 191.934 84.7809 193.635 85.9974 194.331L90.4072 196.885Z" fill="black"/>
<path d="M83.7925 190.531C83.7925 191.935 84.7809 193.635 85.9974 194.337L102.864 204.031C107.425 206.661 114.826 206.661 119.394 204.031L141.538 191.258C146.1 188.627 146.1 184.366 141.538 181.735L124.659 172.029C123.443 171.327 122.454 169.62 122.454 168.223V146.939L83.7925 169.234V190.531Z" fill="#836FFF"/>
<path opacity="0.3" d="M83.7925 190.531C83.7925 191.935 84.7809 193.635 85.9974 194.337L102.864 204.031C107.425 206.661 114.826 206.661 119.394 204.031L141.538 191.258C146.1 188.627 146.1 184.366 141.538 181.735L124.659 172.029C123.443 171.327 122.454 169.62 122.454 168.223V146.939L83.7925 169.234V190.531Z" fill="black"/>
<path opacity="0.5" d="M129.151 174.628L124.665 172.042C123.449 171.34 122.461 169.633 122.461 168.235V146.951L83.7988 169.247V190.531C83.7988 191.934 84.7872 193.635 86.0037 194.337L90.4135 196.879L129.151 174.628Z" fill="black"/>
<path d="M144.959 186.503C144.959 186.503 144.959 187.85 144.959 189.576C144.959 191.302 143.813 193.016 141.538 194.337L119.4 207.104C117.214 208.375 114.376 209.007 111.512 209.058V205.997C114.376 205.959 117.214 205.302 119.4 204.043L141.538 191.264C143.813 189.955 144.959 188.229 144.959 186.503Z" fill="#836FFF"/>
<path opacity="0.5" d="M144.959 186.503C144.959 186.503 144.959 187.85 144.959 189.576C144.959 191.302 143.813 193.016 141.538 194.337L119.4 207.104C117.214 208.375 114.376 209.007 111.512 209.058V205.997C114.376 205.959 117.214 205.302 119.4 204.043L141.538 191.264C143.813 189.955 144.959 188.229 144.959 186.503Z" fill="black"/>
<path d="M21.7132 216.981C23.1387 217.803 25.5274 217.758 27.0543 216.879C46.0621 205.928 157.574 141.678 176.582 130.726C178.103 129.847 179.338 127.716 179.338 125.964V5.25449C179.338 3.50297 178.179 1.41631 176.753 0.594292C175.327 -0.227724 172.939 -0.183462 171.412 0.695464L21.8842 86.8428C20.3636 87.7217 19.1281 89.8526 19.1281 91.6042V212.32C19.1281 214.072 20.2876 216.159 21.7132 216.981Z" fill="#836FFF"/>
<path d="M27.0543 216.88L176.582 130.726C178.103 129.847 179.338 127.716 179.338 125.965V5.24825C179.338 3.49672 178.103 2.7822 176.582 3.66112L27.0543 89.8148C25.5337 90.6937 24.2982 92.8246 24.2982 94.5761V215.292C24.2982 217.05 25.5337 217.758 27.0543 216.88Z" fill="#836FFF"/>
<path opacity="0.5" d="M27.0543 216.88L176.582 130.726C178.103 129.847 179.338 127.716 179.338 125.965V5.24825C179.338 3.49672 178.103 2.7822 176.582 3.66112L27.0543 89.8148C25.5337 90.6937 24.2982 92.8246 24.2982 94.5761V215.292C24.2982 217.05 25.5337 217.758 27.0543 216.88Z" fill="black"/>
<path d="M26.6488 220.022C25.1219 220.692 23.012 220.667 21.7132 219.921C20.2876 219.093 19.1281 217.012 19.1281 215.248V204.258L24.2919 207.243V218.233C24.2919 219.826 25.312 220.553 26.6488 220.022Z" fill="#836FFF"/>
<path opacity="0.5" d="M26.6488 220.022C25.1219 220.692 23.012 220.667 21.7132 219.921C20.2876 219.093 19.1281 217.012 19.1281 215.248V204.258L24.2919 207.243V218.233C24.2919 219.826 25.312 220.553 26.6488 220.022Z" fill="black"/>
<path d="M24.2919 207.237L24.2982 218.226C24.2982 219.978 25.5337 220.692 27.0543 219.813L176.582 133.66C178.103 132.781 179.338 130.65 179.338 128.898V117.89L24.2919 207.237Z" fill="#836FFF"/>
<path opacity="0.3" d="M24.2982 207.218V218.226C24.2982 219.978 25.5337 220.692 27.0543 219.813L176.582 133.66C178.103 132.781 179.338 130.65 179.338 128.898V117.89L24.2982 207.218Z" fill="black"/>
<path d="M29.462 193.446V96.2833C29.462 95.2337 30.2033 93.9501 31.1156 93.4252L172.508 11.9634C173.42 11.4386 174.162 11.8622 174.162 12.9182L174.168 110.081C174.168 111.13 173.427 112.414 172.514 112.939L31.1156 194.4C30.2033 194.925 29.462 194.502 29.462 193.446Z" fill="#836FFF"/>
<path d="M29.462 193.446V96.2833C29.462 95.2337 30.2033 93.9501 31.1156 93.4252L172.508 11.9634C173.42 11.4386 174.162 11.8622 174.162 12.9182L174.168 110.081C174.168 111.13 173.427 112.414 172.514 112.939L31.1156 194.4C30.2033 194.925 29.462 194.502 29.462 193.446Z" fill="#263238"/>
<path d="M101.812 166.06C100.386 166.882 99.2267 168.88 99.2267 170.53C99.2267 172.175 100.386 172.845 101.812 172.016C103.237 171.194 104.397 169.196 104.397 167.546C104.397 165.902 103.244 165.238 101.812 166.06Z" fill="#836FFF"/>
<path opacity="0.7" d="M25.1092 91.8571C24.615 92.7234 24.3109 93.6972 24.2982 94.5761V207.237L19.1345 204.252V91.5979C19.1345 90.719 19.4513 89.7452 19.9455 88.8789L25.1092 91.8571Z" fill="black"/>
<path opacity="0.3" d="M179.306 4.79928C179.11 3.38288 177.963 2.8707 176.576 3.6611L27.0543 89.8147C26.3004 90.251 25.6161 90.9909 25.1092 91.8571L19.9454 88.8789C20.446 88.0253 21.1303 87.2728 21.8906 86.8365L171.412 0.689199C172.939 -0.189726 175.321 -0.233989 176.753 0.594351C178.052 1.34049 179.129 3.15525 179.306 4.79928Z" fill="black"/>
<path d="M187.372 19.6525C187.011 19.4376 186.523 19.4439 185.965 19.7664L44.8773 101.07C43.8128 101.683 42.9448 103.176 42.9448 104.402V200.97C42.9448 201.717 43.268 202.38 43.7558 202.646C44.0726 202.817 45.7263 203.778 46.2205 204.043C46.5373 204.214 46.9238 204.221 47.342 203.98L188.43 122.639C189.495 122.025 190.363 120.533 190.363 119.306V22.2704C190.363 21.638 190.134 21.1954 189.767 21.0057C189.419 20.8223 187.727 19.8675 187.372 19.6525Z" fill="#836FFF"/>
<path d="M46.7083 203.847C46.1698 203.847 45.7326 203.183 45.7326 202.368V105.8C45.7326 104.693 46.5436 103.29 47.5067 102.739L188.595 21.4293C188.848 21.2839 189.089 21.208 189.298 21.208C189.767 21.208 190.052 21.6064 190.052 22.264V119.3C190.052 120.406 189.241 121.81 188.278 122.36L47.1835 203.708C47.0188 203.803 46.8604 203.847 46.7083 203.847Z" fill="#FAFAFA"/>
<path d="M189.298 21.5242C189.678 21.5242 189.735 21.9921 189.735 22.264V119.3C189.735 120.305 188.994 121.583 188.12 122.088L47.0315 203.43C46.9111 203.5 46.8034 203.531 46.7083 203.531C46.3535 203.531 46.0494 202.987 46.0494 202.368V105.8C46.0494 104.794 46.7907 103.517 47.6651 103.011L188.753 21.7075C189.007 21.5558 189.19 21.5242 189.298 21.5242ZM189.298 20.8918C189.038 20.8918 188.747 20.974 188.436 21.1574L47.3419 102.468C46.2775 103.081 45.4095 104.573 45.4095 105.806V202.374C45.4095 203.348 45.948 204.17 46.702 204.17C46.9048 204.17 47.1138 204.113 47.3419 203.987L188.43 122.639C189.495 122.025 190.363 120.533 190.363 119.306V22.2703C190.363 21.3977 189.932 20.8918 189.298 20.8918Z" fill="#E0E0E0"/>
<path d="M43.7558 202.646C43.9649 202.76 45.4665 203.613 46.1255 203.987C45.6819 203.67 45.4475 203.127 45.4158 202.368V112.104L42.9448 110.662V200.977C42.9448 201.716 43.268 202.387 43.7558 202.646Z" fill="#F0F0F0"/>
<path d="M190.363 22.2577C190.356 21.0437 189.495 20.5505 188.436 21.1575L47.3419 102.468C46.2775 103.081 45.4095 104.573 45.4095 105.806V112.104L190.363 28.5809V22.2577Z" fill="#836FFF"/>
<g opacity="0.4">
<path d="M188.436 21.1574L47.3419 102.468C46.8161 102.777 46.3282 103.296 45.9797 103.897L43.5277 102.48C43.8762 101.886 44.3514 101.367 44.8709 101.076L185.965 19.76C186.517 19.4375 187.011 19.4312 187.366 19.6462C187.714 19.8612 189.317 20.7654 189.723 20.9867C189.387 20.8223 188.931 20.8729 188.436 21.1574Z" fill="white"/>
</g>
<path opacity="0.15" d="M42.9448 110.669V104.409C42.9448 103.783 43.1729 103.094 43.5341 102.48L45.9924 103.89C45.6313 104.497 45.4158 105.18 45.4158 105.806V112.104L42.9448 110.669Z" fill="black"/>
<path d="M160.609 95.0504L76.107 143.739C75.3277 144.188 74.6941 145.282 74.6941 146.18V170.36C74.6941 171.258 75.3277 172.345 76.107 172.794L78.578 174.211C79.3573 174.66 80.6182 174.66 81.3975 174.211L165.893 125.528C166.673 125.079 167.306 123.985 167.306 123.087L167.319 98.9012C167.319 98.0033 166.685 96.9157 165.906 96.4668L163.435 95.0504C162.649 94.5951 161.388 94.6014 160.609 95.0504Z" fill="#836FFF"/>
<path opacity="0.5" d="M167.3 98.6736C167.205 97.9464 166.609 97.6808 165.9 98.0855L81.3975 146.774C81.0046 146.995 80.6562 147.388 80.4027 147.83L75.1122 144.782C75.3657 144.346 75.7205 143.96 76.1006 143.745L160.609 95.0567C161.382 94.6077 162.649 94.6014 163.429 95.0504L165.9 96.4668C166.616 96.8714 167.211 97.8262 167.3 98.6736Z" fill="white"/>
<path d="M81.1567 174.318C80.3774 174.647 79.2813 174.609 78.578 174.211L76.107 172.794C75.3277 172.345 74.6941 171.251 74.6941 170.353V146.18C74.6941 145.725 74.8588 145.225 75.1123 144.782L80.4028 147.83C80.143 148.273 79.9846 148.766 79.9846 149.215V173.395C79.9846 174.198 80.4915 174.571 81.1567 174.318Z" fill="#263238"/>
<path d="M81.3975 146.774L165.9 98.0855C166.679 97.6366 167.312 98.0033 167.306 98.9012L167.293 123.087C167.293 123.985 166.66 125.079 165.881 125.528L81.3975 174.204C80.6182 174.653 79.9846 174.286 79.9846 173.389V149.209C79.9846 148.317 80.6182 147.223 81.3975 146.774Z" fill="#836FFF"/>
<path d="M138.205 107.956L76.1006 143.739C75.7142 143.96 75.3657 144.346 75.1122 144.776L80.4027 147.824C80.6562 147.381 81.011 146.989 81.3975 146.768L143.489 110.991L138.205 107.956Z" fill="#455A64"/>
<path d="M143.489 110.998L81.3975 146.774C80.6182 147.223 79.9846 148.317 79.9846 149.215V173.395C79.9846 174.293 80.6182 174.653 81.3975 174.211L143.489 138.434V110.998Z" fill="#37474F"/>
<path d="M95.7167 143.834L127.757 125.37C129.088 124.605 130.165 125.149 130.165 126.584C130.165 128.02 129.088 129.803 127.757 130.568L95.723 149.025C94.3924 149.79 93.3153 149.247 93.3153 147.811C93.309 146.382 94.3861 144.599 95.7167 143.834Z" fill="#836FFF"/>
<path d="M102.281 149.942C102.319 149.923 102.35 149.93 102.376 149.961C102.401 149.993 102.414 150.037 102.414 150.107V153.704C102.414 154.065 102.382 154.413 102.325 154.741C102.268 155.07 102.179 155.374 102.059 155.652C101.939 155.93 101.793 156.177 101.615 156.398C101.438 156.613 101.229 156.79 100.994 156.923C100.754 157.062 100.551 157.125 100.374 157.113C100.196 157.1 100.05 157.024 99.9301 156.879C99.8097 156.74 99.721 156.537 99.664 156.278C99.6069 156.019 99.5753 155.709 99.5753 155.342V151.744C99.5753 151.681 99.5879 151.618 99.6133 151.555C99.6386 151.491 99.6703 151.453 99.7083 151.428L100.107 151.194C100.145 151.175 100.177 151.175 100.203 151.213C100.228 151.245 100.241 151.295 100.241 151.359V154.919C100.241 155.159 100.26 155.355 100.298 155.5C100.336 155.652 100.386 155.76 100.45 155.829C100.513 155.899 100.595 155.93 100.69 155.93C100.785 155.924 100.887 155.892 100.994 155.829C101.102 155.766 101.204 155.684 101.299 155.576C101.394 155.475 101.476 155.349 101.539 155.203C101.603 155.058 101.66 154.887 101.698 154.697C101.736 154.508 101.755 154.293 101.755 154.052V150.499C101.755 150.435 101.767 150.372 101.793 150.309C101.818 150.246 101.85 150.208 101.888 150.182L102.281 149.942Z" fill="#FAFAFA"/>
<path d="M104.764 153.35C104.764 153.287 104.752 153.243 104.726 153.211C104.701 153.186 104.663 153.167 104.606 153.167C104.549 153.167 104.473 153.173 104.378 153.192C104.283 153.211 104.162 153.236 104.01 153.262C103.865 153.287 103.744 153.281 103.649 153.249C103.554 153.218 103.478 153.161 103.421 153.072C103.364 152.99 103.326 152.876 103.301 152.743C103.275 152.61 103.269 152.452 103.269 152.275C103.269 152.098 103.294 151.915 103.339 151.719C103.383 151.523 103.453 151.333 103.542 151.15C103.63 150.966 103.738 150.802 103.858 150.644C103.985 150.492 104.124 150.366 104.289 150.271C104.448 150.176 104.593 150.125 104.72 150.119C104.847 150.107 104.954 150.132 105.043 150.189C105.132 150.246 105.202 150.322 105.252 150.435C105.303 150.543 105.328 150.669 105.335 150.802C105.341 150.865 105.328 150.929 105.297 150.992C105.271 151.055 105.233 151.099 105.202 151.118L104.821 151.34C104.771 151.371 104.733 151.371 104.707 151.359C104.682 151.34 104.657 151.321 104.625 151.295C104.593 151.27 104.555 151.257 104.505 151.257C104.454 151.251 104.384 151.283 104.283 151.34C104.181 151.396 104.099 151.472 104.023 151.567C103.947 151.662 103.909 151.782 103.909 151.915C103.909 151.978 103.915 152.029 103.934 152.06C103.953 152.092 103.985 152.111 104.036 152.117C104.086 152.124 104.156 152.117 104.251 152.105C104.34 152.092 104.46 152.067 104.606 152.035C104.897 151.978 105.107 152.029 105.227 152.199C105.347 152.364 105.411 152.629 105.411 152.977C105.411 153.154 105.385 153.338 105.335 153.534C105.284 153.73 105.214 153.919 105.119 154.103C105.024 154.286 104.91 154.463 104.771 154.621C104.631 154.779 104.479 154.906 104.308 155.007C104.131 155.108 103.979 155.159 103.846 155.165C103.713 155.171 103.599 155.14 103.51 155.077C103.415 155.013 103.345 154.925 103.294 154.805C103.244 154.685 103.218 154.558 103.212 154.419C103.206 154.356 103.218 154.292 103.25 154.229C103.275 154.166 103.307 154.122 103.345 154.103L103.725 153.881C103.776 153.856 103.814 153.85 103.839 153.881C103.865 153.907 103.89 153.938 103.922 153.976C103.953 154.014 103.998 154.033 104.055 154.04C104.112 154.046 104.194 154.021 104.308 153.957C104.359 153.926 104.41 153.894 104.46 153.85C104.511 153.806 104.562 153.761 104.606 153.711C104.65 153.66 104.688 153.603 104.72 153.54C104.752 153.477 104.764 153.414 104.764 153.35Z" fill="#FAFAFA"/>
<path d="M106.057 151.63C106.057 151.302 106.082 150.979 106.139 150.657C106.196 150.334 106.279 150.037 106.38 149.759C106.488 149.487 106.614 149.24 106.767 149.032C106.919 148.823 107.083 148.665 107.267 148.557C107.451 148.45 107.622 148.412 107.768 148.45C107.92 148.481 108.046 148.57 108.154 148.715C108.262 148.855 108.344 149.044 108.401 149.285C108.458 149.525 108.49 149.79 108.49 150.094V150.486C108.49 150.549 108.477 150.612 108.452 150.676C108.427 150.739 108.395 150.777 108.357 150.802L106.703 151.757C106.703 151.89 106.722 152.004 106.754 152.086C106.786 152.168 106.83 152.231 106.881 152.275C106.931 152.313 106.995 152.332 107.064 152.326C107.134 152.32 107.204 152.294 107.28 152.256C107.387 152.193 107.47 152.13 107.539 152.054C107.603 151.978 107.66 151.902 107.704 151.814C107.742 151.744 107.768 151.7 107.793 151.668C107.818 151.637 107.85 151.611 107.888 151.586L108.287 151.359C108.325 151.34 108.357 151.34 108.382 151.371C108.408 151.403 108.42 151.453 108.42 151.517C108.414 151.599 108.389 151.719 108.344 151.877C108.293 152.035 108.224 152.2 108.129 152.377C108.034 152.554 107.913 152.731 107.774 152.895C107.635 153.066 107.47 153.199 107.286 153.306C107.102 153.414 106.931 153.452 106.786 153.426C106.633 153.401 106.507 153.312 106.399 153.161C106.291 153.009 106.215 152.807 106.158 152.547C106.082 152.288 106.057 151.978 106.057 151.63ZM107.273 149.613C107.178 149.67 107.096 149.74 107.026 149.828C106.957 149.917 106.9 150.012 106.855 150.119C106.811 150.227 106.773 150.334 106.747 150.442C106.722 150.555 106.709 150.657 106.697 150.745L107.818 150.1C107.812 150.018 107.799 149.929 107.78 149.847C107.761 149.759 107.73 149.689 107.692 149.632C107.647 149.575 107.597 149.544 107.527 149.531C107.463 149.525 107.375 149.55 107.273 149.613Z" fill="#FAFAFA"/>
<path d="M110.479 147.856C110.283 147.969 110.137 148.127 110.048 148.336C109.96 148.545 109.915 148.823 109.915 149.171V151.453C109.915 151.517 109.903 151.58 109.877 151.643C109.852 151.706 109.82 151.744 109.782 151.77L109.409 151.985C109.371 152.004 109.339 151.997 109.314 151.966C109.288 151.934 109.276 151.883 109.276 151.82V147.729C109.276 147.666 109.288 147.603 109.314 147.539C109.339 147.476 109.371 147.438 109.409 147.413L109.782 147.198C109.82 147.179 109.852 147.179 109.877 147.217C109.903 147.248 109.915 147.299 109.915 147.362V147.565C110.004 147.375 110.093 147.211 110.188 147.084C110.283 146.951 110.41 146.837 110.574 146.749L110.796 146.622C110.834 146.604 110.866 146.61 110.891 146.641C110.917 146.673 110.929 146.724 110.929 146.787V147.369C110.929 147.432 110.917 147.495 110.891 147.558C110.866 147.622 110.834 147.659 110.796 147.685L110.479 147.856Z" fill="#FAFAFA"/>
<path d="M115.206 147.546C115.244 147.527 115.276 147.533 115.301 147.565C115.326 147.596 115.339 147.647 115.339 147.71V148.336C115.339 148.399 115.326 148.462 115.301 148.526C115.276 148.589 115.244 148.627 115.206 148.652L113.039 149.904C113.001 149.923 112.969 149.917 112.944 149.885C112.919 149.854 112.906 149.803 112.906 149.74V144.068C112.906 144.005 112.919 143.941 112.944 143.878C112.969 143.815 113.001 143.777 113.039 143.752L113.438 143.518C113.476 143.499 113.508 143.505 113.533 143.537C113.559 143.568 113.571 143.613 113.571 143.682V148.494L115.206 147.546Z" fill="#FAFAFA"/>
<path d="M117.151 142.866C117.335 142.759 117.5 142.715 117.645 142.734C117.791 142.746 117.918 142.81 118.025 142.93C118.133 143.043 118.222 143.195 118.285 143.398C118.349 143.594 118.387 143.828 118.399 144.087C118.406 144.137 118.406 144.201 118.406 144.289C118.406 144.371 118.406 144.454 118.406 144.536C118.406 144.618 118.406 144.7 118.406 144.776C118.406 144.852 118.406 144.921 118.399 144.978C118.387 145.257 118.349 145.528 118.285 145.8C118.222 146.072 118.139 146.325 118.032 146.559C117.924 146.793 117.797 147.002 117.652 147.185C117.506 147.369 117.341 147.514 117.157 147.615C116.974 147.716 116.809 147.767 116.663 147.748C116.517 147.735 116.391 147.672 116.283 147.558C116.175 147.451 116.093 147.293 116.03 147.097C115.966 146.901 115.928 146.667 115.916 146.407C115.909 146.357 115.909 146.294 115.909 146.211C115.909 146.136 115.909 146.053 115.909 145.971C115.909 145.889 115.909 145.807 115.909 145.725C115.909 145.642 115.916 145.573 115.916 145.516C115.928 145.238 115.966 144.966 116.03 144.694C116.093 144.422 116.182 144.169 116.289 143.929C116.397 143.688 116.524 143.48 116.67 143.296C116.803 143.113 116.967 142.974 117.151 142.866ZM117.747 144.498C117.734 144.321 117.715 144.188 117.677 144.087C117.639 143.992 117.595 143.922 117.538 143.884C117.481 143.847 117.424 143.834 117.354 143.847C117.29 143.859 117.221 143.884 117.151 143.922C117.081 143.96 117.018 144.017 116.948 144.08C116.885 144.144 116.822 144.226 116.765 144.333C116.708 144.435 116.663 144.561 116.625 144.7C116.587 144.839 116.562 145.004 116.556 145.193C116.549 145.244 116.549 145.301 116.549 145.377C116.549 145.446 116.549 145.522 116.549 145.598C116.549 145.674 116.549 145.75 116.549 145.819C116.549 145.889 116.556 145.946 116.556 145.99C116.568 146.167 116.587 146.3 116.625 146.401C116.663 146.502 116.708 146.566 116.765 146.603C116.822 146.641 116.879 146.654 116.948 146.641C117.012 146.629 117.081 146.603 117.151 146.565C117.221 146.528 117.29 146.477 117.354 146.407C117.417 146.344 117.481 146.262 117.538 146.154C117.595 146.053 117.639 145.927 117.677 145.788C117.715 145.649 117.74 145.484 117.747 145.295C117.747 145.25 117.753 145.193 117.753 145.117C117.753 145.042 117.753 144.966 117.753 144.89C117.753 144.814 117.753 144.738 117.753 144.669C117.753 144.599 117.753 144.542 117.747 144.498Z" fill="#FAFAFA"/>
<path d="M120.332 146.566C120.401 146.528 120.471 146.464 120.547 146.389C120.617 146.306 120.687 146.212 120.744 146.098C120.801 145.984 120.851 145.851 120.889 145.699C120.927 145.548 120.946 145.396 120.946 145.225V144.903C120.921 144.972 120.883 145.048 120.845 145.137C120.801 145.225 120.75 145.314 120.687 145.396C120.623 145.484 120.553 145.567 120.471 145.649C120.389 145.731 120.3 145.801 120.199 145.857C120.034 145.952 119.882 145.984 119.749 145.946C119.616 145.908 119.502 145.819 119.407 145.687C119.312 145.554 119.236 145.377 119.185 145.156C119.128 144.941 119.103 144.694 119.09 144.428C119.084 144.34 119.084 144.239 119.084 144.125C119.084 144.011 119.084 143.904 119.09 143.815C119.096 143.543 119.128 143.265 119.185 142.987C119.242 142.708 119.312 142.443 119.407 142.203C119.502 141.956 119.616 141.741 119.749 141.551C119.882 141.362 120.034 141.216 120.199 141.121C120.3 141.064 120.395 141.026 120.471 141.014C120.553 141.001 120.623 141.008 120.687 141.02C120.75 141.039 120.801 141.064 120.845 141.102C120.889 141.14 120.921 141.178 120.946 141.216V141.008C120.946 140.944 120.959 140.881 120.984 140.818C121.01 140.755 121.041 140.717 121.079 140.691L121.453 140.476C121.491 140.457 121.523 140.464 121.548 140.495C121.574 140.527 121.586 140.578 121.586 140.641V144.757C121.586 145.465 121.472 146.066 121.25 146.553C121.029 147.04 120.718 147.4 120.325 147.622C120.161 147.716 120.002 147.767 119.857 147.773C119.711 147.773 119.59 147.742 119.483 147.672C119.375 147.603 119.293 147.501 119.229 147.369C119.166 147.236 119.134 147.084 119.128 146.913C119.122 146.85 119.134 146.787 119.166 146.724C119.191 146.66 119.223 146.616 119.261 146.597L119.597 146.401C119.641 146.376 119.679 146.382 119.717 146.414C119.749 146.452 119.781 146.483 119.8 146.521C119.844 146.597 119.901 146.641 119.977 146.667C120.059 146.692 120.173 146.66 120.332 146.566ZM119.736 143.499C119.723 143.67 119.723 143.834 119.736 143.992C119.755 144.359 119.825 144.599 119.933 144.7C120.047 144.801 120.18 144.808 120.344 144.713C120.503 144.618 120.642 144.454 120.75 144.22C120.858 143.986 120.927 143.708 120.94 143.379C120.946 143.29 120.953 143.176 120.953 143.037C120.953 142.904 120.946 142.791 120.94 142.708C120.921 142.411 120.858 142.209 120.75 142.095C120.642 141.981 120.503 141.975 120.344 142.07C120.18 142.165 120.047 142.323 119.933 142.557C119.825 142.797 119.755 143.107 119.736 143.499Z" fill="#FAFAFA"/>
<path d="M123.056 137.884C123.094 137.865 123.126 137.865 123.151 137.896C123.177 137.928 123.189 137.979 123.189 138.042V138.725C123.189 138.788 123.177 138.851 123.151 138.914C123.126 138.978 123.094 139.016 123.056 139.041L122.632 139.288C122.594 139.307 122.562 139.3 122.537 139.269C122.511 139.237 122.499 139.186 122.499 139.123V138.44C122.499 138.377 122.511 138.314 122.537 138.251C122.562 138.187 122.594 138.149 122.632 138.124L123.056 137.884ZM123.164 143.821C123.164 143.885 123.151 143.948 123.126 144.011C123.101 144.074 123.069 144.112 123.031 144.137L122.657 144.352C122.619 144.371 122.587 144.365 122.562 144.333C122.537 144.302 122.524 144.258 122.524 144.188V140.097C122.524 140.034 122.537 139.97 122.562 139.907C122.587 139.844 122.619 139.806 122.657 139.781L123.031 139.566C123.069 139.547 123.101 139.553 123.126 139.585C123.151 139.616 123.164 139.661 123.164 139.73V143.821Z" fill="#FAFAFA"/>
<path d="M126.509 141.893C126.509 141.956 126.497 142.019 126.471 142.082C126.446 142.146 126.414 142.184 126.376 142.209L126.002 142.424C125.964 142.443 125.933 142.436 125.907 142.405C125.882 142.373 125.869 142.323 125.869 142.259V140.027C125.869 139.673 125.825 139.42 125.73 139.262C125.635 139.104 125.495 139.079 125.305 139.193C125.128 139.294 124.995 139.477 124.894 139.749C124.792 140.015 124.741 140.331 124.741 140.679V142.911C124.741 142.974 124.729 143.037 124.703 143.1C124.678 143.164 124.646 143.202 124.608 143.227L124.235 143.442C124.197 143.461 124.165 143.455 124.14 143.423C124.114 143.391 124.102 143.341 124.102 143.277V139.186C124.102 139.123 124.114 139.06 124.14 138.997C124.165 138.933 124.197 138.895 124.235 138.87L124.608 138.655C124.646 138.636 124.678 138.636 124.703 138.674C124.729 138.706 124.741 138.756 124.741 138.82V139.022C124.83 138.82 124.925 138.636 125.046 138.472C125.16 138.307 125.299 138.175 125.457 138.086C125.66 137.972 125.825 137.928 125.964 137.96C126.097 137.991 126.211 138.08 126.287 138.219C126.37 138.358 126.427 138.541 126.465 138.769C126.497 138.997 126.516 139.25 126.516 139.528V141.893H126.509Z" fill="#FAFAFA"/>
<path d="M158.474 123.486L152.322 127.033L153.278 118.421C152.543 118.035 152.075 117.074 152.075 115.702C152.075 113.255 153.564 110.416 155.401 109.353C157.238 108.291 158.727 109.417 158.727 111.864C158.727 113.236 158.258 114.735 157.524 115.968L158.474 123.486Z" fill="#455A64"/>
<path d="M158.474 123.486L153.057 120.369L152.315 127.033L158.474 123.486Z" fill="#37474F"/>
<path d="M155.395 109.353C154.191 110.049 153.139 111.503 152.556 113.116L157.517 115.974C158.252 114.734 158.721 113.242 158.721 111.87C158.721 109.423 157.232 108.297 155.395 109.353Z" fill="#37474F"/>
<path d="M125.476 80.6842C123.373 79.4701 120.465 79.6408 117.246 81.4935C110.821 85.1926 105.613 94.1968 105.613 101.601C105.613 105.313 106.925 107.918 109.047 109.126C109.599 109.442 112.589 111.175 113.147 111.497C115.25 112.711 118.158 112.54 121.371 110.688C127.795 106.989 133.004 97.9845 133.004 90.58C133.004 86.8809 131.705 84.2821 129.601 83.068" fill="#836FFF"/>
<path d="M121.371 83.8772C114.946 87.5826 109.738 96.5806 109.738 103.985C109.738 111.39 114.946 114.387 121.371 110.688C127.795 106.989 133.01 97.9843 133.004 90.5798C132.997 83.1754 127.789 80.1719 121.371 83.8772Z" fill="#836FFF"/>
<path d="M127.789 100.299V101.146C126.135 103.966 123.867 106.426 121.364 107.861C118.862 109.303 116.6 109.461 114.94 108.538V106.786C114.94 103.403 117.24 99.4323 120.173 97.7377L121.865 96.7702C123.367 95.904 124.818 95.7965 125.958 96.4541C127.13 97.1243 127.789 98.5218 127.789 100.299Z" fill="#836FFF"/>
<path opacity="0.4" d="M125.476 80.6841L129.601 83.0679C127.498 81.8539 124.589 82.0246 121.377 83.8773C117.17 86.3054 113.489 91.0035 111.442 96.0368L107.318 93.653C109.358 88.6197 113.045 83.9215 117.252 81.4998C120.465 79.6407 123.373 79.4637 125.476 80.6841Z" fill="white"/>
<path opacity="0.2" d="M112.995 111.402C112.266 110.985 109.561 109.41 109.047 109.119C106.931 107.912 105.613 105.307 105.613 101.595L109.738 103.979C109.738 107.596 110.98 110.156 112.995 111.402Z" fill="black"/>
<path opacity="0.1" d="M107.311 93.6466L111.436 96.0304C110.359 98.6862 109.738 101.43 109.738 103.979L105.613 101.595C105.613 99.0403 106.241 96.296 107.311 93.6466Z" fill="black"/>
<path d="M119.907 96.3719C119.502 96.3719 119.128 96.2771 118.786 96.0811C118 95.6321 117.569 94.7342 117.569 93.5644C117.569 91.4209 119.026 88.8979 120.889 87.823C121.903 87.2349 122.891 87.1653 123.683 87.6143C124.469 88.0632 124.9 88.9611 124.9 90.1309C124.9 92.2745 123.443 94.7975 121.58 95.8724C121.003 96.2075 120.433 96.3719 119.907 96.3719Z" fill="white"/>
<path d="M125.964 96.4541C124.824 95.7965 123.367 95.904 121.871 96.7702L120.18 97.7377C117.246 99.4323 114.946 103.41 114.946 106.786V108.538C116.6 109.455 118.868 109.303 121.371 107.861C123.867 106.426 126.135 103.966 127.795 101.146V100.299C127.789 98.5218 127.13 97.1243 125.964 96.4541Z" fill="white"/>
<path d="M256.218 205.846C256.218 205.846 257.061 198.46 260.742 192.731C264.423 187.002 269.479 183.423 274.199 183.05C278.92 182.677 282.728 187.009 277.678 189.987C272.628 192.965 263.656 196 259.532 207.129L256.218 205.846Z" fill="#836FFF"/>
<path opacity="0.1" d="M256.218 205.846C256.218 205.846 257.061 198.46 260.742 192.731C264.423 187.002 269.479 183.423 274.199 183.05C278.92 182.677 282.728 187.009 277.678 189.987C272.628 192.965 263.656 196 259.532 207.129L256.218 205.846Z" fill="black"/>
<path d="M257.606 203.93C257.587 203.93 257.574 203.923 257.555 203.917C257.428 203.866 257.365 203.721 257.416 203.588C262.396 191.346 271.874 186.237 276.195 185.245C276.328 185.213 276.468 185.295 276.499 185.434C276.531 185.567 276.449 185.706 276.309 185.738C272.077 186.712 262.788 191.732 257.884 203.778C257.84 203.885 257.72 203.949 257.606 203.93Z" fill="white"/>
<path d="M282.81 204.075C282.385 205.036 281.334 205.536 280.352 205.928C279.376 206.32 278.311 206.743 277.786 207.654C276.721 209.488 278.47 212.074 277.323 213.857C276.841 214.61 275.948 215.002 275.074 215.16C274.345 215.299 273.604 215.292 272.863 215.356C272.508 215.349 272.153 215.324 271.811 215.273C270.797 215.128 269.695 215.077 268.77 215.596C267.306 216.418 266.856 218.258 265.969 219.681C264.905 221.382 263.023 222.495 261.046 222.766C260.387 222.855 259.164 222.969 258.499 222.596C258.448 222.564 258.404 222.539 258.36 222.507C258.353 222.507 258.353 222.501 258.347 222.495C258.258 222.393 258.138 222.261 258.087 222.185C258.075 222.172 258.068 222.159 258.062 222.14C257.802 221.186 258.227 220.199 258.246 219.213C258.246 219.15 258.246 219.093 258.246 219.036C258.208 217.891 258.17 216.753 258.144 215.615C258.094 213.516 258.068 211.416 258.081 209.317C258.094 207.951 257.929 206.459 258.512 205.175C259.152 203.765 260.742 203.734 261.344 202.343C261.585 201.792 261.711 201.198 261.946 200.642C262.643 199.004 264.328 197.821 266.115 197.739C268.896 197.6 271.386 199.845 274.168 199.643C274.884 199.586 275.587 199.371 276.297 199.238C278.546 198.814 281.15 199.459 282.417 201.356C282.943 202.153 283.196 203.202 282.81 204.075Z" fill="#836FFF"/>
<path d="M257.834 217.778C257.827 217.778 257.821 217.778 257.815 217.771C257.688 217.74 257.612 217.607 257.65 217.48C261.49 203.101 276.677 201.021 280.225 201.274C280.352 201.287 280.453 201.394 280.447 201.527C280.44 201.66 280.326 201.755 280.193 201.748C276.721 201.495 261.87 203.531 258.106 217.6C258.075 217.727 257.954 217.803 257.834 217.778Z" fill="white"/>
<path d="M274.706 210.493C274.662 210.487 274.618 210.462 274.58 210.43C274.542 210.392 270.67 206.579 264.246 207.528C264.119 207.547 263.999 207.458 263.973 207.325C263.954 207.199 264.043 207.079 264.176 207.053C270.848 206.073 274.877 210.051 274.915 210.095C275.01 210.19 275.004 210.335 274.915 210.43C274.858 210.481 274.782 210.506 274.706 210.493Z" fill="white"/>
<path d="M221.352 32.1851L223.366 32.9565V28.5239C223.366 25.0082 226.173 24.1672 229.227 25.9251C232.275 27.6829 234.746 31.9574 234.746 35.4668V36.1118C235.436 35.8336 236.33 35.9411 237.305 36.5038C239.498 37.7685 241.278 40.8415 241.278 43.3708V43.6617L244.091 45.2804C245.536 46.1151 246.708 48.1385 246.708 49.8015C246.708 51.4645 245.536 52.1411 244.091 51.3064L221.345 38.2048C219.901 37.3701 218.728 35.3467 218.728 33.6837C218.735 32.027 219.901 31.3504 221.352 32.1851Z" fill="#E6E6E6"/>
<path d="M248.336 28.682L251.992 30.7876C251.973 30.6232 251.96 30.4652 251.96 30.3071V29.2511C251.96 27.3731 253.285 26.608 254.913 27.5502C255.572 27.9296 256.18 28.5366 256.674 29.2385C256.94 26.8736 258.803 25.9947 261.059 27.2909C263.498 28.6947 265.481 32.1218 265.481 34.9357V36.5165C265.481 37.2436 265.348 37.857 265.107 38.3502L268.142 40.1017C269.048 40.6266 269.783 41.8912 269.783 42.9345C269.783 43.9779 269.048 44.4015 268.142 43.8767L248.336 32.4633C247.43 31.9448 246.695 30.6738 246.695 29.6305C246.695 28.5808 247.43 28.1572 248.336 28.682Z" fill="#E6E6E6"/>
<path d="M234.182 124.643C231.521 129.132 228.961 133.034 227.162 134.906C223.747 136.493 215.725 138.927 212.589 139.332C212.031 139.401 211.474 139.262 211.011 138.959C209.776 138.149 208.825 138.023 207.52 137.574C206.5 137.22 206.069 136.739 205.879 136.923C205.632 137.163 205.366 137.833 205.987 138.535C206.297 138.889 206.868 139.269 207.596 139.736C207.596 139.736 205.353 140.331 203.351 139.806C200.633 139.091 199.353 140.4 201.191 143.341C201.85 144.397 204.441 146.085 209.687 145.63C211.201 145.497 213.381 145.37 215.263 144.972C220.3 143.897 225.894 142.86 229.335 141.836C230.203 141.576 231.755 140.577 232.674 139.521C238.459 132.939 240.378 128.247 242.913 123.985L242.691 117.017C238.598 116.897 236.406 120.887 234.182 124.643Z" fill="#FFA8A7"/>
<path d="M243.407 116.897C243.407 116.897 239.827 116.138 237.134 119.572C234.315 123.17 229.335 131.807 229.335 131.807C229.335 131.807 230.969 136.138 235.367 136.853L242.431 127.33C242.431 127.33 245.776 120.741 243.407 116.897Z" fill="#455A64"/>
<path d="M258.683 213.996H254.077V222.191H258.683V213.996Z" fill="#FFA8A7"/>
<path d="M242.716 213.56L238.116 213.724L237.882 205.049L242.716 204.884V213.56Z" fill="#FFA8A7"/>
<path d="M259.329 143.056C259.329 147.628 258.657 184.41 258.657 184.41C258.765 185.725 259.95 188.147 259.696 193.199C259.348 200.06 258.885 218.094 258.885 218.094C258.885 218.094 256.649 219.453 253.76 218.201C253.76 218.201 250.028 192.934 249.204 186.136C248.482 180.199 246.638 160.514 246.638 160.514L244.142 183.746C244.142 183.746 244.991 187.287 244.712 191.353C244.497 194.495 243.014 210.879 243.014 210.879C243.014 210.879 240.847 212.409 237.698 211.302C237.698 211.302 235.081 186.636 235.024 183.746C234.961 180.458 236.558 143.012 236.558 143.012L259.329 143.056Z" fill="#37474F"/>
<path d="M254.077 219.826V219.143C253.633 219.346 252.613 223.405 250.788 225.138C249.337 226.516 247.354 228.103 246.854 229.64C246.328 231.24 249.61 232.118 250.972 231.866C252.55 231.575 255.28 230.424 255.965 229.349C256.649 228.28 256.972 226.699 257.53 225.915C258.087 225.131 259.373 224.259 259.671 223.348C259.836 222.849 259.639 221.761 259.405 220.838C259.19 219.991 258.962 219.061 258.683 219.143C258.683 219.244 258.683 219.668 258.683 219.668C258.347 220.054 257.422 220.433 256.383 220.477C255.705 220.496 254.07 220.357 254.077 219.826Z" fill="#263238"/>
<path d="M238.066 212.245C237.825 212.251 237.635 212.605 237.103 213.199C236.463 213.914 235.424 214.692 234.391 215.223C232.667 216.121 229.316 217.499 227.795 218.207C226.845 218.65 226.889 219.839 227.871 220.515C228.853 221.192 231.217 221.679 234.055 221.021C235.601 220.661 237.616 219.175 238.889 219.257C240.163 219.339 242.551 219.32 243.489 218.644C244.433 217.967 244.053 216.532 243.787 215.292C243.496 213.939 243.134 211.834 242.704 211.929V212.396C242.152 213.269 239.295 213.623 238.078 212.978L238.066 212.245Z" fill="#263238"/>
<path d="M246.626 160.508C246.626 160.508 242.944 159.433 240.214 156.689C240.214 156.689 241.449 159.098 245.13 161.337L244.345 182.083L246.626 160.508Z" fill="#263238"/>
<path d="M256.75 117.58C256.75 117.58 260.539 118.453 260.279 125.307L259.481 136.221L259.5 152.598C256.117 156.43 241.101 156.145 235.962 152.294C235.962 152.294 236.545 132.914 236.894 125.459C237.141 120.16 238.363 117.485 243.584 116.903L250.003 117.188L256.75 117.58Z" fill="#836FFF"/>
<path d="M251.916 103.34C251.916 107.273 248.849 110.466 245.061 110.466C241.272 110.466 239.035 107.191 238.205 103.34C236.691 96.3024 241.272 96.2139 245.061 96.2139C248.849 96.2139 251.916 99.4008 251.916 103.34Z" fill="#263238"/>
<path d="M255.413 106.224C255.413 106.224 254.362 111.358 253.943 112.199C253.519 113.04 252.651 113.28 252.651 113.28L252.727 109.67L255.413 106.224Z" fill="#263238"/>
<path d="M254.089 98.8633C254.089 98.8633 254.843 98.6736 255.642 99.9256C256.326 100.994 256.484 103.403 255.407 106.223L253.424 106.457L254.089 98.8633Z" fill="#263238"/>
<path d="M254.818 99.9066L257.244 99.9508C257.301 99.2553 256.807 98.6798 256.136 98.6672C255.47 98.6546 254.881 99.211 254.818 99.9066Z" fill="#263238"/>
<path d="M255.116 99.3311L256.915 97.6049C256.472 97.0927 255.711 97.0611 255.211 97.5353C254.716 98.0159 254.672 98.8189 255.116 99.3311Z" fill="#263238"/>
<path d="M252.835 106.457C253.234 106.704 253.798 105.914 254.286 105.376C254.773 104.845 256.313 104.339 257.111 106.084C257.922 107.867 256.548 109.556 255.407 110.125C253.361 111.137 252.714 109.663 252.714 109.663L252.55 117.795C249.667 122.24 243.147 122.082 245.491 117.58L245.498 115.108C245.498 115.108 243.534 115.417 242.57 115.266C240.974 115.006 239.973 113.704 239.485 111.908C238.706 109.025 238.414 106.698 239.073 101.026C239.795 94.81 246.752 94.7468 250.503 97.2002C254.267 99.6663 252.835 106.457 252.835 106.457Z" fill="#FFA8A7"/>
<path d="M244.167 100.058C245.827 99.8939 247.468 99.5525 249.134 99.4323C249.496 99.4071 249.863 99.3881 250.212 99.4829C251.485 99.8244 251.32 101.304 251.523 102.341C251.872 104.124 252.163 107.14 252.835 107.153C253.037 107.159 253.791 105.844 254.286 105.382C254.609 105.079 254.659 104.428 254.729 104.023C254.856 103.283 254.926 102.537 254.983 101.791C255.033 101.159 255.097 100.52 255.09 99.8813C255.09 99.1731 255.103 98.4459 254.926 97.7504C254.767 97.1181 254.469 96.6501 254.039 96.1569C253.994 96.1127 253.956 96.0621 253.912 96.0178C253.094 95.1389 252.049 94.475 250.94 94.0197C249.35 93.3621 247.62 93.1028 245.91 92.9258C244.199 92.7487 242.469 92.6539 240.784 92.3124C240.682 92.2935 240.581 92.2745 240.486 92.3061C240.34 92.363 240.277 92.5337 240.245 92.6855C240.093 93.4632 240.448 94.3169 241.107 94.7658C239.96 94.8543 238.642 94.26 237.533 93.9628C237.35 93.9122 237.134 93.8679 236.97 93.9628C236.856 94.0323 236.786 94.1588 236.748 94.2853C236.653 94.5761 236.672 94.8986 236.716 95.2021C236.836 96.1063 237.147 96.9979 237.705 97.7188C238.509 98.7558 239.827 99.6916 241.126 99.9509C242.159 100.16 243.115 100.166 244.167 100.058Z" fill="#263238"/>
<path d="M245.504 115.114C245.504 115.114 249.065 114.368 250.313 113.678C251.149 113.217 251.834 112.42 252.036 111.908C252.036 111.908 251.802 113.008 251.061 113.995C250.148 115.202 245.51 116.094 245.51 116.094L245.504 115.114Z" fill="#F28F8F"/>
<path d="M246.359 105.534C246.359 105.958 246.676 106.306 247.075 106.306C247.468 106.306 247.791 105.958 247.791 105.534C247.791 105.111 247.474 104.763 247.075 104.763C246.676 104.763 246.359 105.111 246.359 105.534Z" fill="#263238"/>
<path d="M247.506 102.461L249.033 103.34C249.261 102.885 249.096 102.316 248.678 102.075C248.254 101.835 247.728 102.006 247.506 102.461Z" fill="#263238"/>
<path d="M245.821 110.656L244.192 111.288C244.351 111.775 244.851 112.022 245.301 111.851C245.751 111.68 245.986 111.143 245.821 110.656Z" fill="#F28F8F"/>
<path d="M239.808 103.112L241.202 102C240.917 101.582 240.378 101.5 239.992 101.804C239.605 102.113 239.529 102.701 239.808 103.112Z" fill="#263238"/>
<path d="M240.423 105.319C240.423 105.743 240.739 106.091 241.139 106.091C241.531 106.091 241.855 105.743 241.855 105.319C241.855 104.896 241.538 104.548 241.139 104.548C240.739 104.548 240.423 104.896 240.423 105.319Z" fill="#263238"/>
<path d="M244.243 104.725L244.161 109.227L241.601 108.639L244.243 104.725Z" fill="#F28F8F"/>
<path d="M183.456 142.38L187.429 140.091L189 138.194L185.034 140.476L183.456 142.38Z" fill="#836FFF"/>
<path opacity="0.4" d="M183.456 142.38L187.429 140.091L189 138.194L185.034 140.476L183.456 142.38Z" fill="black"/>
<path d="M194.259 148.602L198.232 146.313L201.545 143.385L197.579 145.674L194.259 148.602Z" fill="#836FFF"/>
<path opacity="0.4" d="M194.259 148.602L198.232 146.313L201.545 143.385L197.579 145.674L194.259 148.602Z" fill="black"/>
<path d="M228.004 156.506C228.872 157.612 229.506 159.231 229.645 160.818C228.777 159.711 228.144 158.086 228.004 156.506ZM237.236 156.626C235.899 147.552 231.014 138.573 225.191 135.222C222.397 133.609 219.812 133.552 217.74 134.76C217.132 135.114 214.889 136.404 214.002 136.91C213.932 136.948 213.856 136.986 213.793 137.036C213.628 137.125 213.47 137.232 213.311 137.34C213.013 137.549 212.722 137.783 212.45 138.048C212.412 138.08 212.374 138.124 212.323 138.168C212.202 138.288 212.088 138.415 211.981 138.548C211.841 138.706 211.708 138.864 211.582 139.035C211.322 139.376 211.075 139.749 210.853 140.154C210.745 140.35 210.631 140.558 210.53 140.773L177.887 121.968L173.921 124.251V126.774L174.257 126.97L174.567 127.153V127.684L173.915 128.064V129.531L178.711 139.661L183.45 142.399L185.028 140.495L189.209 142.993L191.611 147.103L194.253 148.627L197.567 145.693L201.641 148.039L203.009 153.666L209.827 157.593C210.169 159.035 210.606 160.445 211.119 161.823C211.163 161.969 211.214 162.108 211.277 162.266C213.546 168.216 217.151 173.306 221.218 175.652C221.738 175.949 222.245 176.196 222.752 176.386C223.037 176.506 223.322 176.594 223.607 176.67C223.861 176.74 224.114 176.803 224.367 176.841C225.21 176.993 226.021 176.986 226.781 176.835C226.889 176.809 227.003 176.784 227.111 176.759C227.269 176.727 227.421 176.683 227.573 176.62C227.687 176.575 227.808 176.531 227.928 176.481C228.055 176.436 228.175 176.379 228.296 176.31C228.41 176.259 228.524 176.202 228.632 176.133C228.689 176.101 228.746 176.07 228.803 176.038C228.828 176.032 228.853 176.013 228.879 175.994C229.785 175.475 232.021 174.185 232.623 173.844C235.639 172.099 237.59 167.685 237.59 161.45C237.597 159.844 237.476 158.232 237.236 156.626Z" fill="#836FFF"/>
<path d="M226.845 164.157C225.28 163.252 224.006 160.571 224.006 158.169C224.006 155.766 225.273 154.545 226.845 155.443C228.41 156.348 229.677 159.029 229.677 161.431C229.677 163.841 228.41 165.061 226.845 164.157ZM233.269 158.902C231.933 149.835 227.048 140.856 221.225 137.504C218.526 135.949 216.036 135.835 214.002 136.904C213.932 136.942 213.856 136.98 213.793 137.03C213.628 137.119 213.47 137.226 213.311 137.334C213.014 137.542 212.722 137.776 212.45 138.042C212.412 138.073 212.374 138.118 212.323 138.162C212.202 138.282 212.088 138.409 211.981 138.541C211.841 138.699 211.708 138.858 211.582 139.028C211.322 139.37 211.075 139.743 210.853 140.147C210.745 140.344 210.631 140.552 210.53 140.767C209.991 141.874 209.56 143.157 209.275 144.618L173.927 124.245V126.768L174.263 126.964L174.573 127.147V127.678L173.921 128.058V129.524L178.717 139.654L183.456 142.392L185.034 140.489L189.216 142.987L191.617 147.097L194.259 148.621L197.573 145.687L201.647 148.033L203.015 153.66L209.833 157.587C210.175 159.029 210.612 160.439 211.125 161.817C211.17 161.963 211.22 162.102 211.284 162.26C213.552 168.21 217.157 173.3 221.225 175.646C221.744 175.943 222.251 176.19 222.758 176.379C223.043 176.5 223.328 176.588 223.613 176.664C223.867 176.734 224.12 176.797 224.374 176.835C225.216 176.986 226.027 176.98 226.788 176.828C226.895 176.803 227.01 176.778 227.117 176.753C227.276 176.721 227.428 176.677 227.58 176.613C227.694 176.569 227.814 176.525 227.935 176.474C228.061 176.43 228.182 176.373 228.302 176.304C228.416 176.253 228.53 176.196 228.638 176.127C228.695 176.095 228.752 176.063 228.809 176.032C228.834 176.025 228.86 176.006 228.885 175.987C231.774 174.166 233.631 169.816 233.631 163.727C233.631 162.127 233.504 160.515 233.269 158.902Z" fill="#836FFF"/>
<path opacity="0.4" d="M229.677 161.431C229.677 163.834 228.41 165.061 226.845 164.157C225.273 163.252 224.006 160.578 224.006 158.169C224.006 155.766 225.273 154.539 226.845 155.443C227.263 155.684 227.662 156.05 228.004 156.506C228.144 158.086 228.777 159.711 229.645 160.818C229.671 161.027 229.677 161.235 229.677 161.431Z" fill="black"/>
<path opacity="0.4" d="M237.597 161.425C237.597 167.666 235.645 172.08 232.629 173.819C232.021 174.16 229.791 175.45 228.885 175.968C231.774 174.147 233.631 169.797 233.631 163.708C233.631 162.121 233.497 160.508 233.263 158.896C231.926 149.828 227.041 140.849 221.218 137.498C218.519 135.943 216.029 135.829 213.996 136.897C214.883 136.391 217.125 135.095 217.734 134.747C219.806 133.54 222.391 133.597 225.185 135.209C231.007 138.56 235.892 147.539 237.229 156.613C237.476 158.232 237.597 159.844 237.597 161.425Z" fill="white"/>
<path d="M233.631 163.714C233.631 169.803 231.774 174.154 228.885 175.975C229.791 175.456 232.028 174.166 232.629 173.825C235.645 172.08 237.597 167.666 237.597 161.431C237.597 161.204 237.591 160.97 237.584 160.736C236.222 161.52 234.841 162.317 233.618 163.018C233.624 163.252 233.631 163.486 233.631 163.714Z" fill="#836FFF"/>
<path opacity="0.1" d="M233.631 163.714C233.631 169.803 231.774 174.154 228.885 175.975C229.791 175.456 232.028 174.166 232.629 173.825C235.645 172.08 237.597 167.666 237.597 161.431C237.597 161.204 237.591 160.97 237.584 160.736C236.222 161.52 234.841 162.317 233.618 163.018C233.624 163.252 233.631 163.486 233.631 163.714Z" fill="black"/>
<path opacity="0.15" d="M209.415 147.21V148.5L173.921 128.045L174.573 127.672V127.134L209.415 147.21Z" fill="black"/>
<path opacity="0.15" d="M209.415 147.742V148.5L173.921 128.045L174.573 127.672V127.665L209.415 147.742Z" fill="black"/>
<path opacity="0.15" d="M226.369 173.305C231.317 171.789 233.024 163.07 230.182 153.828C227.34 144.587 221.026 138.324 216.078 139.84C211.13 141.355 209.423 150.075 212.265 159.316C215.107 168.557 221.421 174.82 226.369 173.305Z" stroke="black" stroke-miterlimit="10"/>
<path opacity="0.4" d="M210.53 140.761C209.991 141.867 209.561 143.151 209.275 144.612L173.927 124.238L177.894 121.956L210.53 140.761Z" fill="white"/>
<path d="M256.446 142.74C258.303 139.243 260.412 131.39 261.464 127.425C262.96 121.798 260.539 118.257 257.796 118.111C256.072 118.37 250.421 138.908 250.421 138.908C249.793 139.408 241.189 143.758 238.421 144.852C237.933 145.048 237.388 145.035 236.887 144.858C235.557 144.378 234.657 144.466 233.358 144.333C232.338 144.232 231.825 143.872 231.698 144.087C231.533 144.365 231.457 145.067 232.199 145.585C232.572 145.845 233.187 146.079 233.973 146.357C233.973 146.357 232.503 146.863 230.545 146.825C227.89 146.768 226.934 147.919 228.993 150.606C230.285 152.288 232.363 152.819 237.039 151.207C238.389 150.739 240.214 149.835 241.912 149.221C245.428 147.944 246.328 147.811 249.027 146.901C252.911 145.598 255.623 144.295 256.446 142.74Z" fill="#FFA8A7"/>
<path d="M256.75 117.58C258.366 117.801 259.937 118.168 260.875 119.471C261.813 120.773 262.598 122.613 261.661 127.665C260.723 132.718 258.784 138.08 258.784 138.08C258.784 138.08 255.021 139.686 251.023 135.614L253.772 125.003C253.772 125.003 254.241 118.111 256.75 117.58Z" fill="#455A64"/>
</g>
<defs>
<clipPath id="clip0_76_269">
<rect width="283" height="237" fill="white"/>
</clipPath>
</defs>
</svg>
